<?xml version="1.0" encoding="UTF-8"?>
<svg xmlns="http://www.w3.org/2000/svg" id="Layer_1" data-name="Layer 1" viewBox="0 0 235.64 135.39">
  <defs>
    <style>.cls-1{fill:#f4d01b;}.cls-2{fill:#69328e;}.cls-3{fill:#f7e305;}.cls-4{fill:#402766;}.cls-5{fill:#a02364;}.cls-6{fill:#fff;}</style>
  </defs>
  <path class="cls-1" d="M6.55,100.77a5.48,5.48,0,0,0,.17-1.61A38.67,38.67,0,0,1,7.78,93.4a38.1,38.1,0,0,1,2.81-7.33,42.3,42.3,0,0,1,4.46-6.87,65.26,65.26,0,0,1,6.81-7.39,54.72,54.72,0,0,1,6.08-4.87c.87-.61,1.77-1.2,2.7-1.73l0,1.5-.58.43-.38.23A61.33,61.33,0,0,0,16.94,79.05a37.51,37.51,0,0,0-3.73,43.09A32.33,32.33,0,0,0,25,134.3a43.74,43.74,0,0,0,14.32,5.1,72.68,72.68,0,0,0,14.28,1.13,84.26,84.26,0,0,0,13.72-1.36,135.93,135.93,0,0,0,18.81-4.95c6.48-2.14,12.86-4.56,19.28-6.89A170,170,0,0,1,124,121.44a73.38,73.38,0,0,1,19-2.21,69,69,0,0,1,10.82,1.21,147.69,147.69,0,0,1,14.66,3.72c5.56,1.65,11.06,3.45,16.7,4.79a84.52,84.52,0,0,0,14.65,2.26,49.22,49.22,0,0,0,12.3-.75,35.25,35.25,0,0,0,19.54-10.76,32.75,32.75,0,0,0,8.85-20.16,33.7,33.7,0,0,0-.47-8.91,35.78,35.78,0,0,0-7.5-16.31A41.55,41.55,0,0,0,218.24,63c-1.05-.51-1.05-.51-1-1.59a47.08,47.08,0,0,1,13.32,8.77A36.9,36.9,0,0,1,241.1,87.9a33.61,33.61,0,0,1,1.07,7.53,33.27,33.27,0,0,1-3.28,15.81c-5.41,11.15-14.24,18-26.34,20.76a45.85,45.85,0,0,1-13.93.72,99.9,99.9,0,0,1-18.35-3.66c-6-1.68-12-3.6-18-5.22A107.16,107.16,0,0,0,148.59,121a55.63,55.63,0,0,0-14.81-.07q-4,.54-7.91,1.41A129.36,129.36,0,0,0,113,126.05c-4.25,1.43-8.44,3-12.64,4.6-3.94,1.49-7.89,3-11.86,4.38-4.47,1.58-9,3-13.6,4.13-2.25.55-4.53,1-6.82,1.38-1.69.27-3.39.51-5.09.75-1.22.17-2.47.21-3.71.32a96.61,96.61,0,0,1-10.63.19c-1.91,0-3.81-.24-5.71-.47a57.35,57.35,0,0,1-7.7-1.43A40.8,40.8,0,0,1,22,134a32.09,32.09,0,0,1-7.6-7.56,40.83,40.83,0,0,1-6-11.82,36.38,36.38,0,0,1-1.68-9,5,5,0,0,0-.08-.54Z" transform="translate(-6.55 -6.46)"></path>
  <path class="cls-2" d="M30.66,66.71l0-1.5c0-.2,0-.4,0-.6,0-10.14,0-20.29,0-30.43,0-6.06,2.85-10.39,7.92-13.42a12.54,12.54,0,0,1,4.71-1.56,17.9,17.9,0,0,0-1.84.57c-4.7,2.05-7.48,5.52-7.89,10.73a11.84,11.84,0,0,0-.81,4.44v43a16.52,16.52,0,0,0,.14,2.34,11.64,11.64,0,0,0,8.43,9.5,16.91,16.91,0,0,0,4.86.48c3.74,0,7.47,0,11.21,0a26,26,0,0,0,7-.82A24,24,0,0,0,79.23,77.11a1.65,1.65,0,0,0,.32-.77h0c.16,0,.13-.17.1-.29l.3-.45a25,25,0,0,0,2.78-6.14,35.57,35.57,0,0,0,7.39,10.3,36.12,36.12,0,0,0,25.61,10.46,32.11,32.11,0,0,0,7.25-.75c12.17-2.75,20.84-9.82,26.09-21.11.33-.7.6-1.42.9-2.14l.06,0V79.44c0,.6,0,1.2.1,1.8a10.32,10.32,0,0,0,8.42,8.8,20.69,20.69,0,0,0,3,.19c5.78,0,11.55,0,17.32,0A10.46,10.46,0,0,0,186.84,87a9.79,9.79,0,0,0,2.75-5.86,12.32,12.32,0,0,0,1-3.16c0,.22,0,.44,0,.65a11.3,11.3,0,0,0,3.52,8.23,11.54,11.54,0,0,0,9.45,3.34c4.64-.55,7.75-3.18,9.67-7.33a3.09,3.09,0,0,0,.41-1.32l.08-.12a15.28,15.28,0,0,0,1.36-6.69V47.28c0-.21,0-.43,0-.64a23.94,23.94,0,0,0,2.54-.07,11.8,11.8,0,0,0,8-5,9,9,0,0,0,1.71-3.73l.3-.68a11.36,11.36,0,0,0,.65-8.33,12.28,12.28,0,0,0-12.07-9c-9,.09-18,0-26.93,0a15.57,15.57,0,0,0-2.05.14,12.3,12.3,0,0,0-10.18,9.83,20,20,0,0,0-.1,4.24,4.52,4.52,0,0,0-.08,1,11.22,11.22,0,0,0,3.8,8.39,11.2,11.2,0,0,0,8,3.15c.61,0,1.23,0,1.84,0,0,3.51,0,7,0,10.51V75l-.11-.34c0-.11-.05-.22-.08-.33A10.88,10.88,0,0,0,184.52,67a17.68,17.68,0,0,0-2.42-.82,10.58,10.58,0,0,1,4.27,1.09l.82.39v-18c0-.1,0-.2,0-.3s-.06-.33-.3-.36c-.51-.07-1-.14-1.52-.24a15.26,15.26,0,0,1-9-6A24.33,24.33,0,0,1,175,40.61c.13,1.56,0,3.1.07,4.65,0,.08.06.15.09.23s-.09.17-.09.27c0,3.22,0,6.44,0,9.66,0,.34,0,.67,0,1s0,.3.27.29c.55,0,1.1,0,1.65-.05,2.9,0,5.79-.08,8.69,0l0,4.33c-.86,0-1.73-.06-2.59-.06l-7.6.06c-.33,0-.41.09-.41.42,0,1.53,0,3.06,0,4.6-1,0-1.94,0-2.9,0-.5,0-.6-.12-.59-.59q0-13.12,0-26.23a10.22,10.22,0,0,0-4.67-8.79,10.8,10.8,0,0,0-4.06-1.71A10.37,10.37,0,0,1,167.58,30a13.26,13.26,0,0,1,5.21,4.53c0,.06.11.12.16.18a3.31,3.31,0,0,0,.61,1V32.51a15,15,0,0,1,8-11.83,14.27,14.27,0,0,1,7-1.69c9.08,0,18.16.07,27.24,0a15.16,15.16,0,0,1,14.39,19.77l-.18.57a1.48,1.48,0,0,0-.13.21,15.45,15.45,0,0,1-4,5.73,15,15,0,0,1-5.63,3.2,12.74,12.74,0,0,1-2.44.5c-.24,0-.58,0-.56.45,0,1,0,1.93,0,2.89,0,3,0,6.1,0,9.15-.08,1.08-.08,1.08,1,1.59a41.55,41.55,0,0,1,14.33,11.3,35.78,35.78,0,0,1,7.5,16.31,33.7,33.7,0,0,1,.47,8.91,32.75,32.75,0,0,1-8.85,20.16,35.25,35.25,0,0,1-19.54,10.76,49.22,49.22,0,0,1-12.3.75A84.52,84.52,0,0,1,185.2,129c-5.64-1.34-11.14-3.14-16.7-4.79a147.69,147.69,0,0,0-14.66-3.72A69,69,0,0,0,143,119.23a73.38,73.38,0,0,0-19,2.21,170,170,0,0,0-18.59,5.89c-6.42,2.33-12.8,4.75-19.28,6.89a135.93,135.93,0,0,1-18.81,4.95,84.26,84.26,0,0,1-13.72,1.36,72.68,72.68,0,0,1-14.28-1.13A43.74,43.74,0,0,1,25,134.3a32.33,32.33,0,0,1-11.8-12.16,37.51,37.51,0,0,1,3.73-43.09A61.33,61.33,0,0,1,29.7,67.37l.38-.23v5.19c-.7.53-1.41,1.06-2.1,1.61A45,45,0,0,0,15.31,89.26,31.32,31.32,0,0,0,12,101.88,32.08,32.08,0,0,0,14,113.8a33,33,0,0,0,8.45,13.39,30.45,30.45,0,0,0,12.13,6.7,57.16,57.16,0,0,0,15.36,2.39,79.06,79.06,0,0,0,16.33-1.21,128.56,128.56,0,0,0,18.11-4.73c7-2.29,13.78-4.94,20.67-7.4a161.27,161.27,0,0,1,22.34-6.62,69.09,69.09,0,0,1,12.4-1.42,77.63,77.63,0,0,1,17.45,2c6.27,1.34,12.41,3.19,18.55,5a124.74,124.74,0,0,0,21,4.7,50,50,0,0,0,14.46-.17,29.93,29.93,0,0,0,10.81-4,30.58,30.58,0,0,0,12.14-14.57,29.08,29.08,0,0,0,2.18-15.43,29.91,29.91,0,0,0-6.19-14.4A37.18,37.18,0,0,0,217.8,67.89a.9.9,0,0,0-.56-.19c0,2.77,0,5.54,0,8.31a21.85,21.85,0,0,1-1,7.14A16.58,16.58,0,0,1,213,88a15.6,15.6,0,0,1-3.51,2.69,14.58,14.58,0,0,1-10.57,1.55,14.17,14.17,0,0,1-7.46-4.3c-.24-.25-.36-.27-.61,0a13.48,13.48,0,0,1-4.49,3.43,13.64,13.64,0,0,1-5.27,1.19c-6.65,0-13.31,0-20,0a8.84,8.84,0,0,1-1.15,0,12.83,12.83,0,0,1-5-1.83,13.06,13.06,0,0,1-5.83-7.21,21.73,21.73,0,0,1-.65-3V77.62a.57.57,0,0,0-.35.25,29.93,29.93,0,0,1-2.11,2.4,40.91,40.91,0,0,1-10.39,8.2,36.65,36.65,0,0,1-15.76,4.65,46.54,46.54,0,0,1-9.72-.33,38.14,38.14,0,0,1-9.86-3,40.73,40.73,0,0,1-12-8.35,39.4,39.4,0,0,1-4.07-4.59c-.2-.28-.27-.26-.4,0s-.44.86-.67,1.29a29.36,29.36,0,0,1-7.77,9,24.91,24.91,0,0,1-5.6,3.26,23.42,23.42,0,0,1-9,2c-5.37.06-10.75,0-16.12,0a6.68,6.68,0,0,1-1.34-.12,15,15,0,0,1-9.91-6.26A17.12,17.12,0,0,1,31,80.93a17.46,17.46,0,0,1-.32-2.27q0-3.33,0-6.68Z" transform="translate(-6.55 -6.46)"></path>
  <path class="cls-3" d="M182.1,66.14a17.68,17.68,0,0,1,2.42.82,10.88,10.88,0,0,1,5.86,7.32c0,.11.05.22.08.33l.11.34V57.16c0-3.5,0-7,0-10.51,0-.66,0-1.33,0-2,0-.29-.12-.34-.36-.33-.47,0-.93,0-1.4,0-4.56,0-7.8-2.36-10.22-6A12.6,12.6,0,0,1,177,34.05a20,20,0,0,1,.1-4.24A12.3,12.3,0,0,1,187.25,20a15.57,15.57,0,0,1,2.05-.14c9,0,17.95.07,26.93,0a12.28,12.28,0,0,1,12.07,9,11.36,11.36,0,0,1-.65,8.33l-.3.68c-.11.17-.23.33-.33.5a12.34,12.34,0,0,1-8.19,5.81,16.2,16.2,0,0,1-3.34.17c-.22,0-.44,0-.42.31a19.13,19.13,0,0,0,0,2c0,.21,0,.43,0,.64V74.69a15.28,15.28,0,0,1-1.36,6.69l-.08.12a14,14,0,0,1-5.34,5.11,11.52,11.52,0,0,1-8,1,12.11,12.11,0,0,1-8.68-7.09,13.47,13.47,0,0,1-1-3.17l0,.54a12.32,12.32,0,0,1-1,3.16,13.79,13.79,0,0,1-2.3,3.06A10,10,0,0,1,180.21,87c-6.39,0-12.77,0-19.16,0a10.33,10.33,0,0,1-7.51-3.17,9.22,9.22,0,0,1-3-6.42c-.12-3.76,0-7.53,0-11.3l1.09.59c0,2.8,0,5.61,0,8.41a10.9,10.9,0,0,0,.21,2,8.78,8.78,0,0,0,7.07,6.7,24.3,24.3,0,0,0,3,.16c5.69,0,11.38.07,17.07,0a8.83,8.83,0,0,0,5.61-1.73,8.57,8.57,0,0,0,3.37-8.79,8.67,8.67,0,0,0-8.5-6.89c-3.24,0-6.48,0-9.72,0-.5,0-.64-.13-.64-.64q0-13.48,0-27c0-.62,0-1.23-.07-1.85A8.71,8.71,0,0,0,152.51,34a8.89,8.89,0,0,0-.88,4.41q0,8.09,0,16.17c-.86-.17-1.74-.32-2.59-.57a36.92,36.92,0,0,0,.08-10.55A32,32,0,0,0,143,28.37a1.14,1.14,0,0,1-.24-.78c.06-.79.09-1.59.13-2.39l.19.16a37.55,37.55,0,0,1,7.29,11.83l.19.44c.06-.06.09-.08.09-.11a10.63,10.63,0,0,1,3-5.85c.1-.09.32-.14.24-.36h0c.14.11.18,0,.2-.1h0c.08,0,.08,0,.1-.1a11.18,11.18,0,0,1,8.18-2.43c.16,0,.33,0,.5,0a10.8,10.8,0,0,1,4.06,1.71,10.22,10.22,0,0,1,4.67,8.79q0,13.11,0,26.23c0,.47.09.62.59.59,1,0,1.93,0,2.9,0C177.4,66.07,179.75,66,182.1,66.14Zm30-7.91c0-5.62,0-11.24,0-16.86,0-.53.15-.65.65-.63,1,0,2,0,3,0A9.57,9.57,0,0,0,223.53,37a9.49,9.49,0,0,0,2.09-8.47A9.78,9.78,0,0,0,218.79,21a12.6,12.6,0,0,0-4.15-.53H190.52c-.88,0-1.77.05-2.65.07a9.87,9.87,0,0,0-7.38,3.68,10.06,10.06,0,0,0,1,13.91,9.88,9.88,0,0,0,6,2.64c1.21.07,2.44,0,3.65,0,.69,0,.69,0,.69.68q0,16.2,0,32.42a9.81,9.81,0,0,0,3.63,8,9.93,9.93,0,0,0,14.39-1.4,9.53,9.53,0,0,0,2.26-6.25C212.11,68.9,212.13,63.57,212.13,58.23Z" transform="translate(-6.55 -6.46)"></path>
  <path class="cls-3" d="M33.55,30.5c.41-5.21,3.19-8.68,7.89-10.73a17.9,17.9,0,0,1,1.84-.57c5.61-.46,11.24-.12,16.87-.18a16.93,16.93,0,0,1,5,.83,1.36,1.36,0,0,0,.29,0h0c.1.12.24.09.36.11h0s.07.08.11.09a22,22,0,0,1,9.16,6A20.67,20.67,0,0,1,80.76,38.3c.07.6.11,1.21.17,1.81a1.22,1.22,0,0,0,.21-.47,35,35,0,0,1,4.21-9.1,5.52,5.52,0,0,1,.16,1A30.19,30.19,0,0,0,83.1,36.8c-.31.9-.58,1.8-.81,2.72A35.49,35.49,0,0,0,81.22,46a37.41,37.41,0,0,0,.51,9.33,11,11,0,0,1-1.77.48c0-.1,0-.19-.06-.29a17.27,17.27,0,0,0-3.74-7.09.49.49,0,0,1-.08-.65A18.23,18.23,0,0,0,78,38.12a18.72,18.72,0,0,0-4.07-10.66c-3.78-4.75-8.61-7.55-14.8-7.8-2.09-.08-4.17-.07-6.25-.06-2.91,0-5.81-.1-8.71.08a9.89,9.89,0,0,0-6.88,3.44,10.25,10.25,0,0,0-2.47,7.25q0,21.12,0,42.23a15.22,15.22,0,0,0,.27,2.93,10.18,10.18,0,0,0,7.52,7.63,22.81,22.81,0,0,0,5,.35c3.42,0,6.85,0,10.26-.05a24.77,24.77,0,0,0,7-.87,22.37,22.37,0,0,0,11.36-8,19.43,19.43,0,0,0,3.14-5.8l4.21-2.63a12.44,12.44,0,0,1,1.69-1,34.55,34.55,0,0,0,5.18,7.07A32.72,32.72,0,0,0,117,83.08a31.18,31.18,0,0,0,8.68-1.5,34.36,34.36,0,0,0,17.9-13.73A25.16,25.16,0,0,0,146,63.79c1.18.5,2.27,1.16,3.39,1.76a29.74,29.74,0,0,1-1.86,3.59A42.35,42.35,0,0,1,141.05,77a35.15,35.15,0,0,1-13.32,8.21A36.34,36.34,0,0,1,109,86.42a34,34,0,0,1-16.18-7.93,36.87,36.87,0,0,1-9.3-11.71c0-.08-.06-.22-.25-.23-.13,1-.37,2-.58,2.92a25,25,0,0,1-2.78,6.14l-.3.45c-.06.09-.2.14-.1.29h0c-.24,0-.27.22-.36.35A26.43,26.43,0,0,1,72.75,83a23.25,23.25,0,0,1-13.56,4c-4.44,0-8.88,0-13.32,0A12.18,12.18,0,0,1,33.59,75c-.06-14.6,0-29.21,0-43.82C33.57,30.93,33.55,30.72,33.55,30.5Z" transform="translate(-6.55 -6.46)"></path>
  <path class="cls-2" d="M85.35,30.54a35,35,0,0,0-4.21,9.1,1.22,1.22,0,0,1-.21.47c-.06-.6-.1-1.21-.17-1.81A20.67,20.67,0,0,0,75,26.11a22,22,0,0,0-9.16-6s-.07-.06-.11-.09a15.34,15.34,0,0,1,3.67,1.39A26.1,26.1,0,0,1,80.81,32.29l.28.52c.78-1.34,1.57-2.61,2.41-3.87.27-.4.06-1,0-1.42a58.16,58.16,0,0,1,0-8,43.17,43.17,0,0,1,1.71-9.23c.11-.39.3-.46.64-.51a43.09,43.09,0,0,1,6.52-.51,39.64,39.64,0,0,1,14.86,2.94,2.29,2.29,0,0,0,1.39.12,41.22,41.22,0,0,1,9.21-.67,2.77,2.77,0,0,0,1.3-.28,49.11,49.11,0,0,1,12.32-4.13,43.9,43.9,0,0,1,8.94-.76.49.49,0,0,1,.48.34,33.94,33.94,0,0,1,2.84,8.62,41.78,41.78,0,0,1,.69,7.24.6.6,0,0,0,.17.49,39.11,39.11,0,0,1,7.37,9.6s0,0,.06,0a9,9,0,0,1,1.83-1.48c.08.22-.14.27-.24.36a10.63,10.63,0,0,0-3,5.85s0,0-.09.11l-.19-.44A37.55,37.55,0,0,0,143,25.36l-.19-.16c0-1.65,0-3.3-.1-4.95-.11-1.31-.25-2.61-.46-3.91a31.42,31.42,0,0,0-2.35-7.81.68.68,0,0,0-.75-.47,40.4,40.4,0,0,0-6.11.51,46,46,0,0,0-7.59,1.88,53,53,0,0,0-6.94,3,49.88,49.88,0,0,0-6.47.1,23.28,23.28,0,0,0-4.06.69A45.08,45.08,0,0,0,103,12.36a38.1,38.1,0,0,0-9.12-1.48,43.29,43.29,0,0,0-6.83.31c-.3,0-.41.18-.49.46A38.78,38.78,0,0,0,85,21.22c0,1.15-.13,2.3-.06,3.45C85.09,26.62,85.23,28.58,85.35,30.54Z" transform="translate(-6.55 -6.46)"></path>
  <path class="cls-4" d="M217.25,52.28c0-1,0-1.93,0-2.89,0-.47.32-.42.56-.45a12.74,12.74,0,0,0,2.44-.5,15,15,0,0,0,5.63-3.2,15.45,15.45,0,0,0,4-5.73,1.48,1.48,0,0,1,.13-.21A11.69,11.69,0,0,1,228.62,44a15.2,15.2,0,0,1-10.19,8.07C218,52.15,217.65,52.21,217.25,52.28Z" transform="translate(-6.55 -6.46)"></path>
  <path class="cls-4" d="M173.56,32.51v3.14a3.31,3.31,0,0,1-.61-1A8.73,8.73,0,0,1,173.56,32.51Z" transform="translate(-6.55 -6.46)"></path>
  <path class="cls-2" d="M65.78,20c-.12,0-.26,0-.36-.11C65.55,19.91,65.69,19.86,65.78,20Z" transform="translate(-6.55 -6.46)"></path>
  <path class="cls-2" d="M154.05,31.21c0,.12-.06.21-.2.1C153.87,31.19,153.91,31.12,154.05,31.21Z" transform="translate(-6.55 -6.46)"></path>
  <polygon class="cls-2" points="58.89 13.43 58.87 13.42 58.87 13.43 58.89 13.43"></polygon>
  <path class="cls-2" d="M154.15,31.11c0,.06,0,.12-.1.1S154.09,31.12,154.15,31.11Z" transform="translate(-6.55 -6.46)"></path>
  <path class="cls-4" d="M30.08,72.33V67.14l.58-.43V72Z" transform="translate(-6.55 -6.46)"></path>
  <path class="cls-1" d="M30.08,72.33l.58-.35q0,3.34,0,6.68A17.46,17.46,0,0,0,31,80.93a12.52,12.52,0,0,0,1.2,5.91c2.72,5.89,7.34,9,13.84,9.08,4.76.07,9.51,0,14.27,0a22.62,22.62,0,0,0,5.25-.61c7.79-1.84,13.49-6.47,17.61-13.2a27.77,27.77,0,0,0,1.4-2.78c.07.09.12.14.15.19a38.9,38.9,0,0,0,7.86,8.14,36.59,36.59,0,0,0,19.09,8,41.25,41.25,0,0,0,12.25-.35c9.15-1.75,16.56-6.46,22.6-13.46.66-.78,1.29-1.59,1.93-2.39v1c0,.76,0,1.53,0,2.3a12.7,12.7,0,0,0,5.14,10.3A12.84,12.84,0,0,0,161.87,96c6.49-.06,13,0,19.48,0a9.87,9.87,0,0,0,1.44-.11,13,13,0,0,0,7.69-4.11c.2-.21.32-.28.54,0a10.49,10.49,0,0,0,2,1.62A14.43,14.43,0,0,0,205,95.55a15.09,15.09,0,0,0,8.87-6.18,13.38,13.38,0,0,0,2.33-6.22,21.85,21.85,0,0,0,1-7.14c0-2.77,0-5.54,0-8.31a.9.9,0,0,1,.56.19,37.18,37.18,0,0,1,12.34,10.22,29.91,29.91,0,0,1,6.19,14.4,29.08,29.08,0,0,1-2.18,15.43A30.58,30.58,0,0,1,222,122.51a29.93,29.93,0,0,1-10.81,4,50,50,0,0,1-14.46.17,124.74,124.74,0,0,1-21-4.7c-6.14-1.81-12.28-3.66-18.55-5a77.63,77.63,0,0,0-17.45-2,69.09,69.09,0,0,0-12.4,1.42A161.27,161.27,0,0,0,105,122.94c-6.89,2.46-13.72,5.11-20.67,7.4a128.56,128.56,0,0,1-18.11,4.73,79.06,79.06,0,0,1-16.33,1.21,57.16,57.16,0,0,1-15.36-2.39,30.45,30.45,0,0,1-12.13-6.7A33,33,0,0,1,14,113.8,32.08,32.08,0,0,1,12,101.88a31.32,31.32,0,0,1,3.27-12.62A45,45,0,0,1,28,73.94C28.67,73.39,29.38,72.86,30.08,72.33Zm34.59,34.26a2,2,0,0,0,.65-.77,1.65,1.65,0,0,0-1.66-2.23c-1,0-2,0-3,0-.24,0-.3.08-.3.31q0,2.85,0,5.7c0,.2,0,.3.27.3,1.08,0,2.17,0,3.25,0a1.71,1.71,0,0,0,1.84-1.6A1.56,1.56,0,0,0,64.67,106.59ZM125,110a3.26,3.26,0,1,0-3.33-3.29A3.23,3.23,0,0,0,125,110Zm26.63-3.27a3.17,3.17,0,0,0-3.29-3.25,3.26,3.26,0,1,0-.05,6.52A3.21,3.21,0,0,0,151.66,106.72Zm-45.32,3.12c-.45-.66-.86-1.28-1.29-1.89-.16-.21-.19-.32.09-.47a2,2,0,0,0,1-2.15,1.86,1.86,0,0,0-1.61-1.67,25,25,0,0,0-3.24-.1c-.36,0-.44.1-.44.45,0,1.61,0,3.23,0,4.85,0,1,0,1,1.05,1,.33,0,.38-.12.37-.4,0-.44,0-.87,0-1.31,0-.1,0-.23.11-.29a1.23,1.23,0,0,1,1.18.32l.34.5c.81,1.22.81,1.22,2.29,1.16Zm28.72,0c-.43-.63-.83-1.24-1.26-1.83-.18-.25-.2-.36.12-.54a2,2,0,0,0,1-2.12,1.87,1.87,0,0,0-1.62-1.67,24.18,24.18,0,0,0-3.19-.1c-.36,0-.48.07-.47.46,0,1.6,0,3.2,0,4.8,0,1.11,0,1.11,1.1,1.06.24,0,.32-.06.32-.3,0-.47,0-.94,0-1.4,0-.11-.05-.23.11-.3a1.23,1.23,0,0,1,1.18.34l.34.5c.81,1.22.81,1.22,2.29,1.15Zm30.06,0c-.45-.66-.85-1.26-1.27-1.85-.16-.23-.25-.36.1-.54a1.94,1.94,0,0,0,1-2.12,1.87,1.87,0,0,0-1.6-1.68,25,25,0,0,0-3.24-.1c-.36,0-.44.1-.44.45,0,1.61,0,3.23,0,4.84,0,1.05,0,1.05,1,1h.1c.23,0,.28-.08.27-.29,0-.47,0-.93,0-1.4,0-.11,0-.23.1-.3a1.24,1.24,0,0,1,1.19.32l.33.5c.8,1.2.8,1.2,2.24,1.17Zm-57.74-3.15c0,.94,0,1.87,0,2.8,0,.32.09.39.39.38h3.56c.89,0,.87,0,.88-.89,0-.31-.1-.39-.4-.38-.7,0-1.4,0-2.1,0-1,0-.94,0-.92-.94,0-.26.07-.35.33-.34.59,0,1.17,0,1.75,0,.92,0,.91,0,.9-.9,0-.27-.07-.38-.36-.37-.59,0-1.17,0-1.75,0-.9,0-.88,0-.87-.89,0-.3.1-.36.37-.35.7,0,1.4,0,2.1,0,1,0,.93,0,.91-.93,0-.27-.09-.34-.35-.33-1.37,0-2.73,0-4.1,0-.27,0-.34.07-.33.33C107.39,104.83,107.38,105.77,107.38,106.7Zm67.47,0c0,.92,0,1.83,0,2.75,0,.37.11.43.44.43,1.17,0,2.34,0,3.5,0,.91,0,.89,0,.89-.89,0-.33-.12-.39-.41-.38-.7,0-1.4,0-2.1,0-.95,0-.94,0-.91-1,0-.28.1-.33.35-.33.56,0,1.13,0,1.7,0,.9,0,.89,0,.89-.89,0-.31-.08-.4-.39-.38-.56,0-1.13,0-1.7,0-.86,0-.85,0-.85-.85,0-.31.08-.4.39-.39.68,0,1.36,0,2,0,.93,0,.92,0,.9-.92,0-.25,0-.35-.32-.35-1.37,0-2.74,0-4.1,0-.28,0-.33.1-.33.35C174.86,104.84,174.85,105.78,174.85,106.71Zm-107.94,0c0,.91,0,1.83,0,2.75,0,.36.11.43.45.43,1.17,0,2.33,0,3.5,0,.87,0,.86,0,.85-.87,0-.3-.08-.41-.39-.4-.7,0-1.4,0-2.1,0-1,0-1,0-.93-1,0-.27.11-.33.36-.33.57,0,1.13,0,1.7,0,.92,0,.91,0,.9-.92,0-.3-.1-.36-.37-.35-.58,0-1.17,0-1.75,0-.84,0-.83,0-.84-.83,0-.33.1-.42.42-.41.69,0,1.37,0,2,0,.93,0,.92,0,.91-.92,0-.25,0-.35-.33-.35-1.36,0-2.73,0-4.1,0-.27,0-.33.1-.32.35C66.92,104.84,66.91,105.78,66.91,106.71Zm91.36-.81v-1.33c0-1,0-1-1-1-.34,0-.42.11-.41.42,0,1.15,0,2.31,0,3.46a1.31,1.31,0,0,1-2.61.1,3.26,3.26,0,0,1,0-.54c0-1,0-2.07,0-3.11,0-.33-.17-.38-.39-.31s-1-.32-1,.24a21.6,21.6,0,0,0,.05,4.1,2.24,2.24,0,0,0,1.55,1.9A3.63,3.63,0,0,0,156,110a2.33,2.33,0,0,0,2.16-1.9A11.55,11.55,0,0,0,158.27,105.9Zm-58.33,4c-.08-.2-.13-.36-.2-.51l-2.16-5.08c-.33-.76-.33-.74-1.18-.77a.57.57,0,0,0-.63.41c-.57,1.39-1.17,2.78-1.75,4.17l-.76,1.77.16,0c1.25,0,1.26,0,1.72-1.09a.43.43,0,0,1,.48-.31q1,0,1.95,0a.43.43,0,0,1,.47.32c.46,1.1.46,1.1,1.64,1.09Zm89,.11c.12,0,.24,0,.35,0a2,2,0,0,0,1.91-2.5,1.62,1.62,0,0,0-1.13-1.1c-.6-.22-1.2-.39-1.8-.59a.49.49,0,0,1-.36-.54.54.54,0,0,1,.51-.47,2.24,2.24,0,0,1,1.17.17c.27.1.51.45.77.32s.35-.47.54-.7.14-.32-.08-.46a3.74,3.74,0,0,0-2.47-.6,2.1,2.1,0,0,0-1.07.38,1.83,1.83,0,0,0-.78,1.69,1.6,1.6,0,0,0,1,1.42c.58.26,1.21.35,1.8.58.32.12.61.28.54.66s-.4.46-.73.48a2.42,2.42,0,0,1-1.34-.3c-.76-.42-.77-.42-1.31.29l0,0c-.19.16-.16.27,0,.42A4.06,4.06,0,0,0,188.94,110ZM75.15,110a2.59,2.59,0,0,0,1.26-.25A1.76,1.76,0,0,0,77.47,108a1.58,1.58,0,0,0-1-1.6c-.33-.14-.69-.23-1-.35s-.64-.19-.94-.31a.49.49,0,0,1-.32-.52.5.5,0,0,1,.45-.46,2,2,0,0,1,1.26.18c.77.35.76.33,1.25-.36.18-.25.17-.37-.09-.54a3.89,3.89,0,0,0-1.74-.57,2.29,2.29,0,0,0-2.19.81,1.73,1.73,0,0,0,.72,2.7c.59.25,1.23.39,1.84.6a.54.54,0,0,1,.42.65c-.06.31-.31.4-.59.44a2.33,2.33,0,0,1-1.44-.27c-.8-.43-.79-.42-1.35.29-.16.2-.16.31,0,.47A4.18,4.18,0,0,0,75.15,110Zm93.71-3.27v2.14c0,1.11,0,1.1,1.13,1,.23,0,.29-.07.28-.29,0-.43,0-.86,0-1.29,0-.25.08-.32.32-.31a11.81,11.81,0,0,0,1.19,0,2.17,2.17,0,0,0,2.09-2,2.05,2.05,0,0,0-1.79-2.36,22.4,22.4,0,0,0-2.84-.08c-.33,0-.38.11-.37.4C168.87,104.87,168.86,105.79,168.86,106.71ZM90.27,110a3.16,3.16,0,0,0,2.12-.78c.31-.26.31-.42,0-.69-.55-.51-.53-.52-1.16-.13a1.85,1.85,0,0,1-2.37-.28,2.1,2.1,0,0,1-.08-2.66,1.83,1.83,0,0,1,2.34-.44c.24.13.43.48.69.39s.38-.4.57-.61l.06-.07c.28-.22.15-.38-.06-.54a3.44,3.44,0,0,0-2.23-.71,3.26,3.26,0,1,0,.1,6.52Zm25.82-3.32v2.15c0,1.12,0,1.11,1.11,1.06.24,0,.31-.08.3-.31,0-.6,0-1.2,0-1.8,0-.24.07-.31.31-.31.58,0,1.17,0,1.75,0,1,0,1,0,1-1,0-.26-.07-.34-.34-.33-.58,0-1.16,0-1.75,0-1,0-1,0-.93-1,0-.26.07-.34.33-.33.72,0,1.44,0,2.15,0,1,0,.94,0,.94-.93,0-.28-.07-.37-.36-.37-1.37,0-2.73,0-4.1,0-.28,0-.37.07-.36.35C116.1,104.84,116.09,105.76,116.09,106.67Zm22.06-3.1c.46.73.82,1.43,1.29,2a4.83,4.83,0,0,1,1.13,3.83,1,1,0,0,0,0,.25c0,.15.07.18.21.2,1.08.17,1.21.07,1.21-1,0-.25,0-.5,0-.75a2,2,0,0,1,.38-1.35c.69-1,1.34-2.08,2.06-3.2-.44,0-.8,0-1.16,0a.66.66,0,0,0-.7.4c-.4.7-.83,1.37-1.28,2.1-.46-.78-.89-1.49-1.32-2.2-.08-.14-.13-.3-.35-.29C139.16,103.58,138.7,103.57,138.15,103.57Zm44.93,0h-2.3c-.12,0-.33-.07-.34.11a2.85,2.85,0,0,0,0,1.09c.08.24.45.08.69.1a5.34,5.34,0,0,0,.8,0c.31,0,.39.08.39.38,0,1.2,0,2.41,0,3.61,0,1,0,1,1.05,1,.32,0,.39-.1.38-.4,0-1.19,0-2.37,0-3.56s0-1.06,1.05-1.06c.89,0,.87,0,.89-.88,0-.37-.12-.44-.46-.43C184.52,103.59,183.8,103.57,183.08,103.57Zm-102.19,0h-1.7c-1,0-1,0-1,1,0,.24.07.32.31.31.42,0,.83,0,1.25,0s.36.09.35.37c0,1.2,0,2.4,0,3.6s0,1.06,1.06,1c.3,0,.36-.11.35-.38,0-1.22,0-2.43,0-3.65,0-1,0-1,1-1s1,0,.95-1c0-.3-.11-.35-.37-.34C82.35,103.58,81.62,103.57,80.89,103.57Z" transform="translate(-6.55 -6.46)"></path>
  <path class="cls-4" d="M148.44,79.49c-.64.8-1.27,1.61-1.93,2.39-6,7-13.45,11.71-22.6,13.46a41.25,41.25,0,0,1-12.25.35,36.59,36.59,0,0,1-19.09-8,38.9,38.9,0,0,1-7.86-8.14s-.08-.1-.15-.19a27.77,27.77,0,0,1-1.4,2.78C79,88.85,73.34,93.48,65.55,95.32a22.62,22.62,0,0,1-5.25.61c-4.76,0-9.51.06-14.27,0-6.5-.1-11.12-3.19-13.84-9.08A12.52,12.52,0,0,1,31,80.93a17.12,17.12,0,0,0,2.35,5.25,15,15,0,0,0,9.91,6.26,6.68,6.68,0,0,0,1.34.12c5.37,0,10.75,0,16.12,0a23.42,23.42,0,0,0,9-2,24.91,24.91,0,0,0,5.6-3.26,29.36,29.36,0,0,0,7.77-9c.23-.43.47-.85.67-1.29s.2-.32.4,0a39.4,39.4,0,0,0,4.07,4.59,40.73,40.73,0,0,0,12,8.35,38.14,38.14,0,0,0,9.86,3,46.54,46.54,0,0,0,9.72.33,36.65,36.65,0,0,0,15.76-4.65A40.91,40.91,0,0,0,146,80.27a29.93,29.93,0,0,0,2.11-2.4.57.57,0,0,1,.35-.25Z" transform="translate(-6.55 -6.46)"></path>
  <path class="cls-4" d="M216.23,83.15a13.38,13.38,0,0,1-2.33,6.22A15.09,15.09,0,0,1,205,95.55,14.43,14.43,0,0,1,193,93.3a10.49,10.49,0,0,1-2-1.62c-.22-.25-.34-.18-.54,0a13,13,0,0,1-7.69,4.11,9.87,9.87,0,0,1-1.44.11c-6.49,0-13,0-19.48,0a12.84,12.84,0,0,1-8.29-2.82,12.7,12.7,0,0,1-5.14-10.3c0-.77,0-1.54,0-2.3a21.73,21.73,0,0,0,.65,3,13.06,13.06,0,0,0,5.83,7.21,12.83,12.83,0,0,0,5,1.83,8.84,8.84,0,0,0,1.15,0c6.66,0,13.32,0,20,0a13.64,13.64,0,0,0,5.27-1.19A13.48,13.48,0,0,0,190.84,88c.25-.27.37-.25.61,0a14.17,14.17,0,0,0,7.46,4.3,14.58,14.58,0,0,0,10.57-1.55A15.6,15.6,0,0,0,213,88,16.58,16.58,0,0,0,216.23,83.15Z" transform="translate(-6.55 -6.46)"></path>
  <path class="cls-4" d="M185.66,61l0-4.33c.73-.09.73-.09.73-.85,0-.2,0-.4,0-.59.08-.88,0-1.76,0-2.64,0-.23-.12-.26-.31-.28-.47,0-.93-.11-1.38-.2a15.19,15.19,0,0,1-9.58-6.63c0-.08-.09-.15-.09-.23,0-1.55.06-3.09-.07-4.65a24.33,24.33,0,0,0,1.36,2.19,15.26,15.26,0,0,0,9,6c.5.1,1,.17,1.52.24.24,0,.32.14.3.36s0,.2,0,.3v18l-.82-.39c0-.18,0-.36,0-.55V61.85C186.41,61.08,186.41,61.08,185.66,61Z" transform="translate(-6.55 -6.46)"></path>
  <path class="cls-1" d="M185.66,61c.75.07.75.07.75.84v4.83c0,.19,0,.37,0,.55a10.58,10.58,0,0,0-4.27-1.09c-2.35-.17-4.7-.07-7-.11,0-1.54,0-3.07,0-4.6,0-.33.08-.42.41-.42l7.6-.06C183.93,61,184.8,61,185.66,61Z" transform="translate(-6.55 -6.46)"></path>
  <path class="cls-1" d="M175.09,55.42l11.3-.18c0,.19,0,.39,0,.59,0,.76,0,.76-.73.85-2.9-.1-5.79-.06-8.69,0-.55,0-1.1,0-1.65.05-.23,0-.28-.08-.27-.29S175.08,55.76,175.09,55.42Z" transform="translate(-6.55 -6.46)"></path>
  <path class="cls-5" d="M212.13,58.23c0,5.34,0,10.67,0,16a9.53,9.53,0,0,1-2.26,6.25,10.14,10.14,0,0,1-18-6.64q0-16.21,0-32.42c0-.68,0-.68-.69-.68-1.21,0-2.44,0-3.65,0a9.88,9.88,0,0,1-6-2.64,10.06,10.06,0,0,1-1-13.91,9.87,9.87,0,0,1,7.38-3.68c.88,0,1.77-.07,2.65-.07h24.12a12.6,12.6,0,0,1,4.15.53,9.78,9.78,0,0,1,6.83,7.56A9.49,9.49,0,0,1,223.53,37a9.57,9.57,0,0,1-7.76,3.76c-1,0-2,0-3,0-.5,0-.66.1-.65.63C212.14,47,212.13,52.61,212.13,58.23Zm-5.2-3.8q0-9.39,0-18.77c0-.41.11-.52.52-.52q3.62,0,7.21,0A6,6,0,0,0,217.92,34a6.14,6.14,0,0,0,1.51-8.78,5.85,5.85,0,0,0-4.87-2.48q-13.8,0-27.59,0a6.3,6.3,0,0,0-5.58,3.81,6.1,6.1,0,0,0,1.55,6.83,6.21,6.21,0,0,0,4.51,1.69c2.19,0,4.37,0,6.56,0,.65,0,.65,0,.65.64q0,18.33,0,36.67A6.22,6.22,0,0,0,197.92,78a5.56,5.56,0,0,0,3.82.65A6.38,6.38,0,0,0,207,72.34C206.85,66.37,206.93,60.4,206.93,54.43Z" transform="translate(-6.55 -6.46)"></path>
  <path class="cls-5" d="M151.62,54.61q0-8.09,0-16.17a8.89,8.89,0,0,1,.88-4.41A8.71,8.71,0,0,1,169,37.1c0,.62.07,1.23.07,1.85q0,13.48,0,27c0,.51.14.65.64.64,3.24,0,6.48,0,9.72,0a8.67,8.67,0,0,1,8.5,6.89,8.57,8.57,0,0,1-3.37,8.79A8.83,8.83,0,0,1,178.93,84c-5.69.11-11.38,0-17.07,0a24.3,24.3,0,0,1-3-.16,8.78,8.78,0,0,1-7.07-6.7,10.9,10.9,0,0,1-.21-2c0-2.8,0-5.61,0-8.41L154,68v6.2a4,4,0,0,0,.16,1,5.38,5.38,0,0,0,5.39,3.87c6.12,0,12.25,0,18.37,0a5.69,5.69,0,0,0,3.93-1.47A5,5,0,0,0,183.34,72a5.08,5.08,0,0,0-5-3.51c-4.38,0-8.77,0-13.16,0-.48,0-.56-.15-.56-.59q0-15.08,0-30.17a19.12,19.12,0,0,0-.09-2,5.31,5.31,0,0,0-4.8-4.62c-2.94-.25-5.76,2.25-5.75,4.94,0,6.34,0,12.67,0,19Z" transform="translate(-6.55 -6.46)"></path>
  <path class="cls-5" d="M118.55,13.41a53,53,0,0,1,6.94-3,46,46,0,0,1,7.59-1.88,40.4,40.4,0,0,1,6.11-.51.68.68,0,0,1,.75.47,31.42,31.42,0,0,1,2.35,7.81c.21,1.3.35,2.6.46,3.91.13,1.65.07,3.3.1,4.95,0,.8-.07,1.6-.13,2.39a1.14,1.14,0,0,0,.24.78,32,32,0,0,1,6.15,15.12A36.92,36.92,0,0,1,149,54a3.12,3.12,0,0,1-.44,0l-6.68-1.39A25.07,25.07,0,0,0,141,30.49a1,1,0,0,1-.12-.66c.1-.7.17-1.39.22-2.09a47.26,47.26,0,0,0-.09-9A31.72,31.72,0,0,0,138.87,10a.52.52,0,0,0-.6-.38c-1,0-2,.11-3,.22a45.28,45.28,0,0,0-16.67,5.38,2.66,2.66,0,0,1-1.56.32,30.54,30.54,0,0,0-7.87.41,2.44,2.44,0,0,1-1.57-.19A35.22,35.22,0,0,0,96,12.6a34.31,34.31,0,0,0-7.78.05.47.47,0,0,0-.48.43,38.76,38.76,0,0,0-1.17,8.7,57.42,57.42,0,0,0,.66,10.56,1.66,1.66,0,0,1-.11.88,24.59,24.59,0,0,0-1.77,9.16A25.12,25.12,0,0,0,88,53.61l-6.24,1.72A37.41,37.41,0,0,1,81.22,46a35.49,35.49,0,0,1,1.07-6.48c.23-.92.5-1.82.81-2.72.11,0,.15-.11.19-.2a33.88,33.88,0,0,1,2.19-4.69.43.43,0,0,0,0-.38,5.52,5.52,0,0,0-.16-1c-.12-2-.26-3.92-.37-5.87-.07-1.15,0-2.3.06-3.45a38.78,38.78,0,0,1,1.47-9.57c.08-.28.19-.42.49-.46a43.29,43.29,0,0,1,6.83-.31A38.1,38.1,0,0,1,103,12.36,45.08,45.08,0,0,1,108,14.2l.79.39c.18.19.41.11.61.07.6-.11,1.2-.23,1.81-.3s1.44-.18,2.15-.27a12.88,12.88,0,0,1,2.91,0A3.33,3.33,0,0,0,118.55,13.41Z" transform="translate(-6.55 -6.46)"></path>
  <path class="cls-2" d="M141.91,52.6,148.59,54a3.12,3.12,0,0,0,.44,0c.85.25,1.73.4,2.59.57l2.42.5,6.85,1.44a.08.08,0,0,0,0,.09c-.78-.09-1.56-.17-2.33-.27L154,55.83l-2.41-.3c-.92-.19-1.85-.26-2.78-.36s-2-.28-3-.4l-4.7-.57a.55.55,0,0,0-.18-.06c-3-.38-5.94-.76-8.92-1.12-.32,0-.39-.15-.32-.44.13-.55.26-1.11.35-1.66.05-.31.17-.33.43-.28l5.91,1.24Z" transform="translate(-6.55 -6.46)"></path>
  <path class="cls-2" d="M154,68l-2.4-1.27-1.09-.59a7.62,7.62,0,0,0-1.21-.61c-1.12-.6-2.21-1.26-3.39-1.76a1.06,1.06,0,0,0-.4-.29l-7.37-3.89c-.19-.09-.36-.25-.6-.19,0-.26-.28-.26-.44-.35-2.11-1.12-4.22-2.24-6.34-3.34-.28-.15-.37-.27-.16-.55a8.23,8.23,0,0,0,.63-1c.15-.28.28-.36.59-.15,1,.67,2.09,1.3,3.14,1.94s2.37,1.52,3.61,2.19c2.57,1.65,5.17,3.24,7.79,4.81,1,.71,2.13,1.37,3.22,2l.91.57a4.75,4.75,0,0,0,1.11.65A20.18,20.18,0,0,0,154,67.65c.2.14.41.26.6.41.37.27.84.4,1.12.79h0C155.14,68.65,154.64,68.24,154,68Z" transform="translate(-6.55 -6.46)"></path>
  <path class="cls-5" d="M137.58,59.42c.24-.06.41.1.6.19l7.37,3.89a1.06,1.06,0,0,1,.4.29,25.16,25.16,0,0,1-2.34,4.06,34.36,34.36,0,0,1-17.9,13.73,31.18,31.18,0,0,1-8.68,1.5A34.88,34.88,0,0,1,85.25,65.14c1.55-1,3.09-1.93,4.65-2.88,1-.59,1.91-1.26,2.94-1.75a4,4,0,0,1,.37.33,29,29,0,0,0,7.64,5.41A31.29,31.29,0,0,0,119,69.15a30.23,30.23,0,0,0,13.84-5.46A33.16,33.16,0,0,0,137.58,59.42Z" transform="translate(-6.55 -6.46)"></path>
  <path class="cls-5" d="M79.35,68.76a19.43,19.43,0,0,1-3.14,5.8,22.37,22.37,0,0,1-11.36,8,24.77,24.77,0,0,1-7,.87c-3.41,0-6.84.05-10.26.05a22.81,22.81,0,0,1-5-.35,10.18,10.18,0,0,1-7.52-7.63,15.22,15.22,0,0,1-.27-2.93q0-21.12,0-42.23a10.25,10.25,0,0,1,2.47-7.25,9.89,9.89,0,0,1,6.88-3.44c2.9-.18,5.8-.06,8.71-.08,2.08,0,4.16,0,6.25.06,6.19.25,11,3.05,14.8,7.8A18.72,18.72,0,0,1,78,38.12a18.23,18.23,0,0,1-1.9,9.66.49.49,0,0,0,.08.65,17.27,17.27,0,0,1,3.74,7.09c0,.1,0,.19.06.29l-4.71,1.31A13.68,13.68,0,0,0,69,46.81c.17-.14.26-.23.37-.31a8.52,8.52,0,0,0,2.76-4A15,15,0,0,0,70,28.83c-3.41-4.67-8-7.17-13.91-6.95-4.08.15-8.17,0-12.26,0A6.07,6.07,0,0,0,37.61,28q0,21.83,0,43.64a6,6,0,0,0,4.26,5.83,7,7,0,0,0,2,.33c4.65,0,9.31.1,14,0a16.9,16.9,0,0,0,10.79-4,18.41,18.41,0,0,0,6.15-9.19,19.75,19.75,0,0,0,.54-6.89c.31-.07.62-.15.93-.2,1.3-.24,2.59-.56,3.91-.72,0,.22.1.45.14.68a24.54,24.54,0,0,1,.08,7.16,34.57,34.57,0,0,1-.75,3.5l-.38.3c-.73.57-1.54,1-2.23,1.64a.35.35,0,0,0-.29.21s-.1,0,0,.07l0-.07a.26.26,0,0,0,.32-.18C77.89,69.74,78.57,69.15,79.35,68.76Z" transform="translate(-6.55 -6.46)"></path>
  <path class="cls-2" d="M75.25,57.12,80,55.81a11,11,0,0,0,1.77-.48L88,53.61c.56-.15,1.12-.29,1.68-.45,3-.82,6-1.64,9-2.48.33-.1.44,0,.51.29a12.27,12.27,0,0,0,.39,1.44c.16.42,0,.54-.38.62-3.47.66-6.93,1.34-10.39,2l-1,.19L82,56.39a8.39,8.39,0,0,0-1.78.36c-1.32.16-2.61.48-3.91.72-.31.05-.62.13-.93.2l-4.83.88,0-.07Z" transform="translate(-6.55 -6.46)"></path>
  <path class="cls-2" d="M79.35,68.76c-.78.39-1.46,1-2.28,1.3l0,0c.69-.62,1.5-1.07,2.23-1.64l.38-.3c1-.7,2-1.39,3-2.12a24.79,24.79,0,0,0,2.2-1.61,4,4,0,0,0,.35-.2l6.66-4.75,6.73-4.76c.41-.29.85-.82,1.22-.78s.61.77,1,1.14.2.45-.13.66c-2.45,1.48-4.89,3-7.32,4.48-.17.11-.37.17-.48.36-1,.49-2,1.16-2.94,1.75-1.56,1-3.1,1.92-4.65,2.88a12.44,12.44,0,0,0-1.69,1Z" transform="translate(-6.55 -6.46)"></path>
  <path class="cls-2" d="M85.51,31.53a.43.43,0,0,1,0,.38,33.88,33.88,0,0,0-2.19,4.69c0,.09-.08.18-.19.2A30.19,30.19,0,0,1,85.51,31.53Z" transform="translate(-6.55 -6.46)"></path>
  <path class="cls-3" d="M108.81,14.59,108,14.2a23.28,23.28,0,0,1,4.06-.69,49.88,49.88,0,0,1,6.47-.1,3.33,3.33,0,0,1-2.26.64,12.88,12.88,0,0,0-2.91,0A20.06,20.06,0,0,0,108.81,14.59Z" transform="translate(-6.55 -6.46)"></path>
  <path class="cls-2" d="M64.67,106.59a1.56,1.56,0,0,1,1.09,1.67,1.71,1.71,0,0,1-1.84,1.6c-1.08.06-2.17,0-3.25,0-.24,0-.27-.1-.27-.3q0-2.85,0-5.7c0-.23.06-.32.3-.31,1,0,2,0,3,0a1.65,1.65,0,0,1,1.66,2.23A2,2,0,0,1,64.67,106.59Zm-1.79.7H62c-.16,0-.25,0-.25.22s0,.63,0,.95c0,.15.08.21.22.2a9.35,9.35,0,0,0,1.83-.08.57.57,0,0,0,.52-.57.6.6,0,0,0-.49-.65A4.31,4.31,0,0,0,62.88,107.29Zm-.19-2.44c-1,0-1,0-.91,1a.09.09,0,0,1,0,0c0,.14,0,.22.19.22a7.94,7.94,0,0,0,1.54-.06.57.57,0,0,0,.5-.64.58.58,0,0,0-.59-.55C63.18,104.84,62.93,104.85,62.69,104.85Z" transform="translate(-6.55 -6.46)"></path>
  <path class="cls-2" d="M125,110a3.23,3.23,0,0,1-3.33-3.29,3.28,3.28,0,0,1,3.5-3.23A3.26,3.26,0,1,1,125,110Zm1.91-3.19a1.9,1.9,0,0,0-1.82-2,1.85,1.85,0,0,0-1.92,1.86,1.89,1.89,0,0,0,1.79,2.05A1.85,1.85,0,0,0,126.94,106.8Z" transform="translate(-6.55 -6.46)"></path>
  <path class="cls-2" d="M151.66,106.72a3.21,3.21,0,0,1-3.34,3.27,3.26,3.26,0,1,1,.05-6.52A3.17,3.17,0,0,1,151.66,106.72Zm-1.48,0a1.88,1.88,0,1,0-3.75,0,1.91,1.91,0,0,0,1.91,2A1.83,1.83,0,0,0,150.18,106.75Z" transform="translate(-6.55 -6.46)"></path>
  <path class="cls-2" d="M106.34,109.84l-.13,0c-1.48.06-1.48.06-2.29-1.16l-.34-.5a1.23,1.23,0,0,0-1.18-.32c-.15.06-.1.19-.11.29,0,.44,0,.87,0,1.31,0,.28,0,.4-.37.4-1.05,0-1.05,0-1.05-1,0-1.62,0-3.24,0-4.85,0-.35.08-.47.44-.45a25,25,0,0,1,3.24.1,1.86,1.86,0,0,1,1.61,1.67,2,2,0,0,1-1,2.15c-.28.15-.25.26-.09.47C105.48,108.56,105.89,109.18,106.34,109.84Zm-3.13-3.24c.21,0,.43,0,.65,0a.82.82,0,0,0,.86-.89c0-.52-.32-.81-.9-.84h-.7c-.83,0-.83,0-.83.85S102.29,106.61,103.21,106.6Z" transform="translate(-6.55 -6.46)"></path>
  <path class="cls-2" d="M135.06,109.82l-.11.05c-1.48.07-1.48.07-2.29-1.15l-.34-.5a1.23,1.23,0,0,0-1.18-.34c-.16.07-.11.19-.11.3,0,.46,0,.93,0,1.4,0,.24-.08.29-.32.3-1.1.05-1.1.05-1.1-1.06,0-1.6,0-3.2,0-4.8,0-.39.11-.48.47-.46a24.18,24.18,0,0,1,3.19.1,1.87,1.87,0,0,1,1.62,1.67,2,2,0,0,1-1,2.12c-.32.18-.3.29-.12.54C134.23,108.58,134.63,109.19,135.06,109.82ZM132,104.87c-1,0-1,0-1,.94,0,.17,0,.34,0,.5s.05.31.27.3c.45,0,.9,0,1.35,0a.79.79,0,0,0,.8-.88.82.82,0,0,0-.86-.84C132.39,104.86,132.19,104.87,132,104.87Z" transform="translate(-6.55 -6.46)"></path>
  <path class="cls-2" d="M165.12,109.85l-.19,0c-1.44,0-1.44,0-2.24-1.17l-.33-.5a1.24,1.24,0,0,0-1.19-.32c-.15.07-.1.19-.1.3,0,.47,0,.93,0,1.4,0,.21,0,.32-.27.29h-.1c-1,0-1,0-1-1,0-1.61,0-3.23,0-4.84,0-.35.08-.47.44-.45a25,25,0,0,1,3.24.1,1.87,1.87,0,0,1,1.6,1.68,1.94,1.94,0,0,1-1,2.12c-.35.18-.26.31-.1.54C164.27,108.59,164.67,109.19,165.12,109.85Zm-3.1-5h0a5,5,0,0,1-.55,0c-.35,0-.41.11-.41.42,0,1.36,0,1.36,1.35,1.33a1.51,1.51,0,0,0,.3,0,.86.86,0,0,0,0-1.72C162.45,104.86,162.23,104.87,162,104.87Z" transform="translate(-6.55 -6.46)"></path>
  <path class="cls-2" d="M107.38,106.7c0-.93,0-1.87,0-2.8,0-.26.06-.34.33-.33,1.37,0,2.73,0,4.1,0,.26,0,.34.06.35.33,0,.93,0,.93-.91.93-.7,0-1.4,0-2.1,0-.27,0-.37,0-.37.35,0,.89,0,.89.87.89.58,0,1.16,0,1.75,0,.29,0,.35.1.36.37,0,.9,0,.9-.9.9-.58,0-1.16,0-1.75,0-.26,0-.33.08-.33.34,0,.94,0,.94.92.94.7,0,1.4,0,2.1,0,.3,0,.4.07.4.38,0,.89,0,.89-.88.89h-3.56c-.3,0-.39-.06-.39-.38C107.4,108.57,107.38,107.64,107.38,106.7Z" transform="translate(-6.55 -6.46)"></path>
  <path class="cls-2" d="M174.85,106.71c0-.93,0-1.87,0-2.8,0-.25.05-.35.33-.35,1.36,0,2.73,0,4.1,0,.27,0,.32.1.32.35,0,.92,0,.92-.9.92-.69,0-1.37,0-2,0-.31,0-.4.08-.39.39,0,.85,0,.85.85.85.57,0,1.14,0,1.7,0,.31,0,.4.07.39.38,0,.89,0,.89-.89.89-.57,0-1.14,0-1.7,0-.25,0-.35,0-.35.33,0,1,0,1,.91,1,.7,0,1.4,0,2.1,0,.29,0,.41,0,.41.38,0,.89,0,.89-.89.89-1.16,0-2.33,0-3.5,0-.33,0-.46-.06-.44-.43C174.87,108.54,174.85,107.63,174.85,106.71Z" transform="translate(-6.55 -6.46)"></path>
  <path class="cls-2" d="M66.91,106.71c0-.93,0-1.87,0-2.8,0-.25,0-.35.32-.35,1.37,0,2.74,0,4.1,0,.28,0,.32.1.33.35,0,.92,0,.92-.91.92-.68,0-1.36,0-2,0-.32,0-.42.08-.42.41,0,.83,0,.83.84.83.58,0,1.17,0,1.75,0,.27,0,.37.05.37.35,0,.92,0,.92-.9.92-.57,0-1.13,0-1.7,0-.25,0-.35.06-.36.33,0,1,0,1,.93,1,.7,0,1.4,0,2.1,0,.31,0,.39.1.39.4,0,.87,0,.87-.85.87-1.17,0-2.33,0-3.5,0-.34,0-.46-.07-.45-.43C66.93,108.54,66.91,107.62,66.91,106.71Z" transform="translate(-6.55 -6.46)"></path>
  <path class="cls-2" d="M158.27,105.9a11.55,11.55,0,0,1-.09,2.16A2.33,2.33,0,0,1,156,110a3.63,3.63,0,0,1-1.63-.14,2.24,2.24,0,0,1-1.55-1.9,21.6,21.6,0,0,1-.05-4.1c0-.56.68-.13,1-.24s.4,0,.39.31c0,1,0,2.07,0,3.11a3.26,3.26,0,0,0,0,.54,1.31,1.31,0,0,0,2.61-.1c0-1.15,0-2.31,0-3.46,0-.31.07-.42.41-.42,1,0,1,0,1,1Z" transform="translate(-6.55 -6.46)"></path>
  <path class="cls-2" d="M99.94,109.86l-.26,0c-1.18,0-1.18,0-1.64-1.09a.43.43,0,0,0-.47-.32q-1,0-1.95,0a.43.43,0,0,0-.48.31c-.46,1.13-.47,1.13-1.72,1.09l-.16,0,.76-1.77c.58-1.39,1.18-2.78,1.75-4.17a.57.57,0,0,1,.63-.41c.85,0,.85,0,1.18.77l2.16,5.08C99.81,109.5,99.86,109.66,99.94,109.86Zm-3.34-4.58c-.12.26-.21.45-.29.64-.59,1.44-.59,1.44,1,1.25Z" transform="translate(-6.55 -6.46)"></path>
  <path class="cls-2" d="M188.94,110a4.06,4.06,0,0,1-2.46-.81c-.2-.15-.23-.26,0-.42l0,0c.54-.71.55-.71,1.31-.29a2.42,2.42,0,0,0,1.34.3c.33,0,.67-.1.73-.48s-.22-.54-.54-.66c-.59-.23-1.22-.32-1.8-.58a1.6,1.6,0,0,1-1-1.42,1.83,1.83,0,0,1,.78-1.69,2.1,2.1,0,0,1,1.07-.38,3.74,3.74,0,0,1,2.47.6c.22.14.24.26.08.46s-.3.58-.54.7-.5-.22-.77-.32a2.24,2.24,0,0,0-1.17-.17.54.54,0,0,0-.51.47.49.49,0,0,0,.36.54c.6.2,1.2.37,1.8.59a1.62,1.62,0,0,1,1.13,1.1,2,2,0,0,1-1.91,2.5C189.18,110,189.06,110,188.94,110Z" transform="translate(-6.55 -6.46)"></path>
  <path class="cls-2" d="M75.15,110a4.18,4.18,0,0,1-2.43-.8c-.21-.16-.21-.27,0-.47.56-.71.55-.72,1.35-.29a2.33,2.33,0,0,0,1.44.27c.28,0,.53-.13.59-.44a.54.54,0,0,0-.42-.65c-.61-.21-1.25-.35-1.84-.6a1.73,1.73,0,0,1-.72-2.7,2.29,2.29,0,0,1,2.19-.81,3.89,3.89,0,0,1,1.74.57c.26.17.27.29.09.54-.49.69-.48.71-1.25.36a2,2,0,0,0-1.26-.18.5.5,0,0,0-.45.46.49.49,0,0,0,.32.52c.3.12.62.21.94.31s.7.21,1,.35a1.58,1.58,0,0,1,1,1.6,1.76,1.76,0,0,1-1.06,1.71A2.59,2.59,0,0,1,75.15,110Z" transform="translate(-6.55 -6.46)"></path>
  <path class="cls-2" d="M168.86,106.71c0-.92,0-1.84,0-2.75,0-.29,0-.42.37-.4a22.4,22.4,0,0,1,2.84.08,2.05,2.05,0,0,1,1.79,2.36,2.17,2.17,0,0,1-2.09,2,11.81,11.81,0,0,1-1.19,0c-.24,0-.33.06-.32.31,0,.43,0,.86,0,1.29,0,.22-.05.28-.28.29-1.13.07-1.13.08-1.13-1Zm1.41-.89c0,.23,0,.46,0,.69s0,.26.22.25a5.14,5.14,0,0,0,1.24-.07.86.86,0,0,0,.68-.76.89.89,0,0,0-.89-1.06C170.27,104.77,170.27,104.77,170.27,105.82Z" transform="translate(-6.55 -6.46)"></path>
  <path class="cls-2" d="M90.27,110a3.26,3.26,0,1,1-.1-6.52,3.44,3.44,0,0,1,2.23.71c.21.16.34.32.06.54l-.06.07c-.19.21-.34.53-.57.61s-.45-.26-.69-.39a1.83,1.83,0,0,0-2.34.44,2.1,2.1,0,0,0,.08,2.66,1.85,1.85,0,0,0,2.37.28c.63-.39.61-.38,1.16.13.29.27.29.43,0,.69A3.16,3.16,0,0,1,90.27,110Z" transform="translate(-6.55 -6.46)"></path>
  <path class="cls-2" d="M116.09,106.67c0-.91,0-1.83,0-2.75,0-.28.08-.36.36-.35,1.37,0,2.73,0,4.1,0,.29,0,.36.09.36.37,0,.93,0,.93-.94.93-.71,0-1.43,0-2.15,0-.26,0-.33.07-.33.33,0,1,0,1,.93,1,.59,0,1.17,0,1.75,0,.27,0,.33.07.34.33,0,1,0,1-1,1-.58,0-1.17,0-1.75,0-.24,0-.32.07-.31.31,0,.6,0,1.2,0,1.8,0,.23-.06.3-.3.31-1.11.05-1.11.06-1.11-1.06Z" transform="translate(-6.55 -6.46)"></path>
  <path class="cls-2" d="M138.15,103.57c.55,0,1,0,1.47,0,.22,0,.27.15.35.29.43.71.86,1.42,1.32,2.2.45-.73.88-1.4,1.28-2.1a.66.66,0,0,1,.7-.4c.36,0,.72,0,1.16,0-.72,1.12-1.37,2.17-2.06,3.2a2,2,0,0,0-.38,1.35c0,.25,0,.5,0,.75,0,1.08-.13,1.18-1.21,1-.14,0-.22,0-.21-.2a1,1,0,0,1,0-.25,4.83,4.83,0,0,0-1.13-3.83C139,105,138.61,104.3,138.15,103.57Z" transform="translate(-6.55 -6.46)"></path>
  <path class="cls-2" d="M183.08,103.57c.72,0,1.44,0,2.15,0,.34,0,.47.06.46.43,0,.88,0,.88-.89.88-1.05,0-1.05,0-1.05,1.06s0,2.37,0,3.56c0,.3-.06.4-.38.4-1.05,0-1.05,0-1.05-1,0-1.2,0-2.41,0-3.61,0-.3-.08-.41-.39-.38a5.34,5.34,0,0,1-.8,0c-.24,0-.61.14-.69-.1a2.85,2.85,0,0,1,0-1.09c0-.18.22-.1.34-.11Z" transform="translate(-6.55 -6.46)"></path>
  <path class="cls-2" d="M80.89,103.57c.73,0,1.46,0,2.2,0,.26,0,.37,0,.37.34,0,1,0,1-.95,1s-1,0-1,1c0,1.22,0,2.43,0,3.65,0,.27-.05.37-.35.38-1.06,0-1.06,0-1.06-1s0-2.4,0-3.6c0-.28,0-.39-.35-.37s-.83,0-1.25,0c-.24,0-.3-.07-.31-.31,0-1,0-1,1-1Z" transform="translate(-6.55 -6.46)"></path>
  <path class="cls-3" d="M206.93,54.43c0,6-.08,11.94,0,17.91a6.38,6.38,0,0,1-5.22,6.26,5.56,5.56,0,0,1-3.82-.65,6.22,6.22,0,0,1-3.27-5.49q0-18.33,0-36.67c0-.64,0-.64-.65-.64-2.19,0-4.37,0-6.56,0a6.21,6.21,0,0,1-4.51-1.69,6.1,6.1,0,0,1-1.55-6.83A6.3,6.3,0,0,1,187,22.78q13.8,0,27.59,0a5.85,5.85,0,0,1,4.87,2.48A6.14,6.14,0,0,1,217.92,34a6,6,0,0,1-3.27,1.07q-3.6,0-7.21,0c-.41,0-.52.11-.52.52Q206.94,45.05,206.93,54.43Z" transform="translate(-6.55 -6.46)"></path>
  <path class="cls-3" d="M155.74,68.85c-.28-.39-.75-.52-1.12-.79-.19-.15-.4-.27-.6-.41,0-.22,0-.43,0-.65,0-3.72,0-7.45,0-11.17l4.51.54c.77.1,1.55.18,2.33.27a3.66,3.66,0,0,0,1.09.13l-1.08-.22L154,55.11c0-6.34,0-12.67,0-19,0-2.69,2.81-5.19,5.75-4.94a5.31,5.31,0,0,1,4.8,4.62,19.12,19.12,0,0,1,.09,2q0,15.09,0,30.17c0,.44.08.59.56.59,4.39,0,8.78,0,13.16,0a5.08,5.08,0,0,1,5,3.51,5,5,0,0,1-1.45,5.64A5.69,5.69,0,0,1,178,79.14c-6.12,0-12.25,0-18.37,0a5.38,5.38,0,0,1-5.39-3.87,4,4,0,0,1-.16-1V68c.6.22,1.1.63,1.71.82,0,.07.07.09.14.09s0-.06,0-.06A.12.12,0,0,0,155.74,68.85Z" transform="translate(-6.55 -6.46)"></path>
  <path class="cls-3" d="M92.84,60.51c.11-.19.31-.25.48-.36,2.43-1.5,4.87-3,7.32-4.48.33-.21.41-.35.13-.66s-.51-1.1-1-1.14-.81.49-1.22.78l-6.73,4.76A24.55,24.55,0,0,1,88.76,55c3.46-.67,6.92-1.35,10.39-2,.42-.08.54-.2.38-.62A12.27,12.27,0,0,1,99.14,51c-.07-.32-.18-.39-.51-.29-3,.84-6,1.66-9,2.48-.56.16-1.12.3-1.68.45a25.12,25.12,0,0,1-2.61-11.23,24.59,24.59,0,0,1,1.77-9.16,1.66,1.66,0,0,0,.11-.88,57.42,57.42,0,0,1-.66-10.56,38.76,38.76,0,0,1,1.17-8.7.47.47,0,0,1,.48-.43A34.31,34.31,0,0,1,96,12.6a35.22,35.22,0,0,1,11.55,3.18,2.44,2.44,0,0,0,1.57.19,30.54,30.54,0,0,1,7.87-.41,2.66,2.66,0,0,0,1.56-.32,45.28,45.28,0,0,1,16.67-5.38c1-.11,2-.17,3-.22a.52.52,0,0,1,.6.38A31.72,31.72,0,0,1,141,18.76a47.26,47.26,0,0,1,.09,9c-.05.7-.12,1.39-.22,2.09a1,1,0,0,0,.12.66,25.07,25.07,0,0,1,.89,22.11l-3.5-.72-5.91-1.24c-.26,0-.38,0-.43.28-.09.55-.22,1.11-.35,1.66-.07.29,0,.4.32.44,3,.36,6,.74,8.92,1.12a.55.55,0,0,1,.18.06,28.07,28.07,0,0,1-2.53,3.94c-1.24-.67-2.41-1.46-3.61-2.19s-2.11-1.27-3.14-1.94c-.31-.21-.44-.13-.59.15a8.23,8.23,0,0,1-.63,1c-.21.28-.12.4.16.55,2.12,1.1,4.23,2.22,6.34,3.34.16.09.41.09.44.35a33.16,33.16,0,0,1-4.75,4.27A30.23,30.23,0,0,1,119,69.15a31.29,31.29,0,0,1-18.14-2.9,29,29,0,0,1-7.64-5.41A4,4,0,0,0,92.84,60.51Zm6-18.59a3.45,3.45,0,0,0,6.38,0,3,3,0,0,0-1.14-3.51,3.55,3.55,0,0,0-4.1,0A2.92,2.92,0,0,0,98.84,41.92Zm22.87-.13a2.52,2.52,0,0,0,1,1.49,3.48,3.48,0,0,0,5.42-1.4,2.53,2.53,0,0,0,.11-1.65,3.14,3.14,0,0,0-2.52-2.42A3.28,3.28,0,0,0,122.23,39,2.64,2.64,0,0,0,121.71,41.79Zm-17.4,15.09a5.41,5.41,0,0,0,3.54,6.24,5.94,5.94,0,0,0,4.57-.14,5.7,5.7,0,0,0,3.11-3.36c.11.25.19.46.29.65a5.93,5.93,0,0,0,10.71-.35,4,4,0,0,0,.17-3.06c0-.16,0-.33,0-.5a5.64,5.64,0,0,0-5.4-5.44,1.7,1.7,0,0,0-.89-1,10.76,10.76,0,0,0-4-.72c-.78-.07-1.55.11-2.33.09a6.7,6.7,0,0,0-2.73.48,1.63,1.63,0,0,0-1.11,1.11,5.34,5.34,0,0,0-3,.69A5.58,5.58,0,0,0,104.31,56.88Zm16.75-40.56A29.57,29.57,0,0,1,139.29,28a1.25,1.25,0,0,0,.09-.62,47.49,47.49,0,0,0-.36-6.19,30.7,30.7,0,0,0-2.09-8c-.1-.24-.18-.38-.49-.37A42.81,42.81,0,0,0,124,15.19C123.05,15.52,122.09,15.86,121.06,16.32Zm-16.64,1c-.65-.23-1.3-.47-2-.68a30.3,30.3,0,0,0-12.64-1.57c-.32,0-.46.13-.53.44a25.87,25.87,0,0,0-.64,4.19A41,41,0,0,0,89,27.52a24,24,0,0,0,.43,2.63A30.18,30.18,0,0,1,104.42,17.31Zm15.89,25.25A5.58,5.58,0,0,0,115,36.89a5.61,5.61,0,1,0-.17,11.21A5.47,5.47,0,0,0,120.31,42.56Z" transform="translate(-6.55 -6.46)"></path>
  <path class="cls-2" d="M108.81,14.59a20.06,20.06,0,0,1,4.57-.5c-.71.09-1.43.2-2.15.27s-1.21.19-1.81.3C109.22,14.7,109,14.78,108.81,14.59Z" transform="translate(-6.55 -6.46)"></path>
  <path class="cls-5" d="M138.61,58.14a28.07,28.07,0,0,0,2.53-3.94l4.7.57c1,.12,2,.27,3,.4,0,.11,0,.23,0,.35A32.9,32.9,0,0,1,146.4,63C143.78,61.38,141.18,59.79,138.61,58.14Z" transform="translate(-6.55 -6.46)"></path>
  <path class="cls-3" d="M146.4,63a32.9,32.9,0,0,0,2.4-7.43c0-.12,0-.24,0-.35.93.1,1.86.17,2.78.36,0,3.54,0,7.09,0,10.63a4.75,4.75,0,0,1-1.11-.65V62.7l-.91,2.24C148.53,64.32,147.45,63.66,146.4,63Z" transform="translate(-6.55 -6.46)"></path>
  <path class="cls-5" d="M151.64,66.16c0-3.54,0-7.09,0-10.63l2.41.3c0,3.72,0,7.45,0,11.17,0,.22,0,.43,0,.65A20.18,20.18,0,0,1,151.64,66.16Z" transform="translate(-6.55 -6.46)"></path>
  <path class="cls-5" d="M160.89,56.55l1.08.22a3.66,3.66,0,0,1-1.09-.13A.08.08,0,0,1,160.89,56.55Z" transform="translate(-6.55 -6.46)"></path>
  <path class="cls-6" d="M149.62,64.94l.91-2.24v2.81Z" transform="translate(-6.55 -6.46)"></path>
  <path class="cls-3" d="M75.25,57.12l-4.77,1.36,0,.07,4.83-.88a19.75,19.75,0,0,1-.54,6.89,18.41,18.41,0,0,1-6.15,9.19,16.9,16.9,0,0,1-10.79,4c-4.65.14-9.31,0-14,0a7,7,0,0,1-2-.33,6,6,0,0,1-4.26-5.83q0-21.82,0-43.64a6.07,6.07,0,0,1,6.2-6.11c4.09,0,8.18.12,12.26,0,6-.22,10.5,2.28,13.91,7a15,15,0,0,1,2.17,13.64,8.52,8.52,0,0,1-2.76,4c-.11.08-.2.17-.37.31A13.68,13.68,0,0,1,75.25,57.12ZM50,59.29c0,1.89,0,3.77,0,5.66,0,.36.08.48.47.48,2.53,0,5.07,0,7.61,0a5.31,5.31,0,0,0,3.4-1.12,6.33,6.33,0,0,0,2.3-6,5.77,5.77,0,0,0-5.65-5.12c-2.56,0-5.11,0-7.66,0-.39,0-.47.11-.47.48C50,55.55,50,57.42,50,59.29Zm0-20.46c0,1.37,0,2.74,0,4.1,0,.37.09.48.47.48,1.72,0,3.43,0,5.15,0a18.3,18.3,0,0,0,2.34-.08,3.4,3.4,0,0,0,3.17-3,9.33,9.33,0,0,0,0-2.69,3.47,3.47,0,0,0-3.74-3.31c-2.34,0-4.67,0-7,0-.32,0-.39.11-.39.41C50,36.07,50,37.45,50,38.83Z" transform="translate(-6.55 -6.46)"></path>
  <path class="cls-3" d="M84.86,64.36A24.79,24.79,0,0,1,82.66,66c-1,.73-2,1.42-3,2.12a34.57,34.57,0,0,0,.75-3.5,24.54,24.54,0,0,0-.08-7.16c0-.23-.09-.46-.14-.68A8.39,8.39,0,0,1,82,56.39c.13.55.25,1.1.4,1.64A28.8,28.8,0,0,0,84.86,64.36Z" transform="translate(-6.55 -6.46)"></path>
  <path class="cls-2" d="M76.74,70.24A.35.35,0,0,1,77,70l0,0a.26.26,0,0,1-.32.18Z" transform="translate(-6.55 -6.46)"></path>
  <path class="cls-2" d="M76.75,70.24l0,.07c-.06-.06,0-.06,0-.07Z" transform="translate(-6.55 -6.46)"></path>
  <path class="cls-5" d="M84.86,64.36A28.8,28.8,0,0,1,82.35,58c-.15-.54-.27-1.09-.4-1.64l5.84-1.16,1-.19a24.55,24.55,0,0,0,3.11,4.37l-6.66,4.75A4,4,0,0,1,84.86,64.36Z" transform="translate(-6.55 -6.46)"></path>
  <path class="cls-1" d="M62.88,107.29a4.31,4.31,0,0,1,1,.07.6.6,0,0,1,.49.65.57.57,0,0,1-.52.57,9.35,9.35,0,0,1-1.83.08c-.14,0-.22,0-.22-.2,0-.32,0-.63,0-.95s.09-.22.25-.22Z" transform="translate(-6.55 -6.46)"></path>
  <path class="cls-1" d="M62.69,104.85c.24,0,.49,0,.74,0a.58.58,0,0,1,.59.55.57.57,0,0,1-.5.64,7.94,7.94,0,0,1-1.54.06c-.15,0-.2-.08-.19-.22a.09.09,0,0,0,0,0C61.68,104.83,61.68,104.83,62.69,104.85Z" transform="translate(-6.55 -6.46)"></path>
  <path class="cls-1" d="M126.94,106.8a1.85,1.85,0,0,1-2,1.88,1.89,1.89,0,0,1-1.79-2.05,1.85,1.85,0,0,1,1.92-1.86A1.9,1.9,0,0,1,126.94,106.8Z" transform="translate(-6.55 -6.46)"></path>
  <path class="cls-1" d="M150.18,106.75a1.83,1.83,0,0,1-1.84,1.93,1.91,1.91,0,0,1-1.91-2,1.88,1.88,0,1,1,3.75,0Z" transform="translate(-6.55 -6.46)"></path>
  <path class="cls-1" d="M103.21,106.6c-.92,0-.92,0-.92-.89s0-.85.83-.85h.7c.58,0,.89.32.9.84a.82.82,0,0,1-.86.89C103.64,106.62,103.42,106.6,103.21,106.6Z" transform="translate(-6.55 -6.46)"></path>
  <path class="cls-1" d="M132,104.87c.2,0,.4,0,.6,0a.82.82,0,0,1,.86.84.79.79,0,0,1-.8.88c-.45,0-.9,0-1.35,0-.22,0-.29-.09-.27-.3s0-.33,0-.5C131,104.86,131,104.86,132,104.87Z" transform="translate(-6.55 -6.46)"></path>
  <path class="cls-1" d="M162,104.87c.21,0,.43,0,.65,0a.86.86,0,0,1,0,1.72,1.51,1.51,0,0,1-.3,0c-1.36,0-1.35,0-1.35-1.33,0-.31.06-.47.41-.42a5,5,0,0,0,.55,0Z" transform="translate(-6.55 -6.46)"></path>
  <path class="cls-1" d="M96.6,105.28l.76,1.89c-1.64.19-1.64.19-1-1.25C96.39,105.73,96.48,105.54,96.6,105.28Z" transform="translate(-6.55 -6.46)"></path>
  <path class="cls-1" d="M170.27,105.82c0-1,0-1,1.24-.95a.89.89,0,0,1,.89,1.06.86.86,0,0,1-.68.76,5.14,5.14,0,0,1-1.24.07c-.18,0-.22-.09-.22-.25S170.27,106.05,170.27,105.82Z" transform="translate(-6.55 -6.46)"></path>
  <path class="cls-2" d="M155.74,68.85a.12.12,0,0,1,.17,0s0,.06,0,.06-.13,0-.14-.09Z" transform="translate(-6.55 -6.46)"></path>
  <path class="cls-6" d="M121.29,50.92a5.64,5.64,0,0,1,5.4,5.44c0,.17,0,.34,0,.5s-.13.3-.19.46a5.9,5.9,0,0,1-5.14,4,5.76,5.76,0,0,1-5.44-3.47c-.15-.32-.25-.66-.4-1.08a10.18,10.18,0,0,1-.55,1.43,5.6,5.6,0,0,1-6,3,5.8,5.8,0,0,1-4.46-3.89c-.06-.16,0-.37-.26-.45a5.58,5.58,0,0,1,3-5.28,5.34,5.34,0,0,1,3-.69,3.54,3.54,0,0,0,2,3.29,4.69,4.69,0,0,1-.18-1.27c0-.34.08-.71.48-.85a1,1,0,0,1,1.09.27,2.34,2.34,0,0,1,.51,1.12,14.38,14.38,0,0,0,.49,1.82,1.2,1.2,0,0,0,2.21,0,5.18,5.18,0,0,0,.32-1.15,4.8,4.8,0,0,1,.55-1.65,1,1,0,0,1,1.13-.42c.42.11.52.46.54.86a4.38,4.38,0,0,1-.2,1.28A3.62,3.62,0,0,0,121.29,50.92Z" transform="translate(-6.55 -6.46)"></path>
  <path class="cls-2" d="M121.06,16.32c1-.46,2-.8,3-1.13a42.81,42.81,0,0,1,12.42-2.36c.31,0,.39.13.49.37a30.7,30.7,0,0,1,2.09,8,47.49,47.49,0,0,1,.36,6.19,1.25,1.25,0,0,1-.09.62A29.57,29.57,0,0,0,121.06,16.32Z" transform="translate(-6.55 -6.46)"></path>
  <path class="cls-2" d="M104.42,17.31a30.18,30.18,0,0,0-15,12.84A24,24,0,0,1,89,27.52a41,41,0,0,1-.32-7.83,25.87,25.87,0,0,1,.64-4.19c.07-.31.21-.41.53-.44a30.3,30.3,0,0,1,12.64,1.57C103.12,16.84,103.77,17.08,104.42,17.31Z" transform="translate(-6.55 -6.46)"></path>
  <path class="cls-2" d="M104.31,56.88c.21.08.2.29.26.45A5.8,5.8,0,0,0,109,61.22a5.6,5.6,0,0,0,6-3,10.18,10.18,0,0,0,.55-1.43c.15.42.25.76.4,1.08a5.76,5.76,0,0,0,5.44,3.47,5.9,5.9,0,0,0,5.14-4c.06-.16.12-.31.19-.46a4,4,0,0,1-.17,3.06,5.93,5.93,0,0,1-10.71.35c-.1-.19-.18-.4-.29-.65A5.7,5.7,0,0,1,112.42,63a5.94,5.94,0,0,1-4.57.14A5.41,5.41,0,0,1,104.31,56.88Z" transform="translate(-6.55 -6.46)"></path>
  <path class="cls-2" d="M121.29,50.92a3.62,3.62,0,0,1-2.07,3.28,4.38,4.38,0,0,0,.2-1.28c0-.4-.12-.75-.54-.86a1,1,0,0,0-1.13.42,4.8,4.8,0,0,0-.55,1.65,5.18,5.18,0,0,1-.32,1.15,1.2,1.2,0,0,1-2.21,0,14.38,14.38,0,0,1-.49-1.82,2.34,2.34,0,0,0-.51-1.12,1,1,0,0,0-1.09-.27c-.4.14-.44.51-.48.85a4.69,4.69,0,0,0,.18,1.27,3.54,3.54,0,0,1-2-3.29,1.63,1.63,0,0,1,1.11-1.11,6.7,6.7,0,0,1,2.73-.48c.78,0,1.55-.16,2.33-.09a10.76,10.76,0,0,1,4,.72A1.7,1.7,0,0,1,121.29,50.92Z" transform="translate(-6.55 -6.46)"></path>
  <path class="cls-2" d="M128.13,41.88a3.48,3.48,0,0,1-5.42,1.4,2.52,2.52,0,0,1-1-1.49,3.52,3.52,0,0,1,4-2.08A3.15,3.15,0,0,1,128.13,41.88Z" transform="translate(-6.55 -6.46)"></path>
  <path class="cls-2" d="M105.22,41.88a3.45,3.45,0,0,1-6.38,0A3.34,3.34,0,0,1,103,39.78,3,3,0,0,1,105.22,41.88Z" transform="translate(-6.55 -6.46)"></path>
  <path class="cls-5" d="M105.22,41.88a3,3,0,0,0-2.2-2.1,3.34,3.34,0,0,0-4.18,2.14A2.92,2.92,0,0,1,100,38.37a3.55,3.55,0,0,1,4.1,0A3,3,0,0,1,105.22,41.88Z" transform="translate(-6.55 -6.46)"></path>
  <path class="cls-5" d="M128.13,41.88a3.15,3.15,0,0,0-2.43-2.17,3.52,3.52,0,0,0-4,2.08,2.64,2.64,0,0,1,.52-2.79,3.28,3.28,0,0,1,3.49-1.19,3.14,3.14,0,0,1,2.52,2.42A2.53,2.53,0,0,1,128.13,41.88Z" transform="translate(-6.55 -6.46)"></path>
  <path class="cls-5" d="M50,59.29c0-1.87,0-3.74,0-5.6,0-.37.08-.48.47-.48,2.55,0,5.1,0,7.66,0a5.77,5.77,0,0,1,5.65,5.12,6.33,6.33,0,0,1-2.3,6A5.31,5.31,0,0,1,58,65.42c-2.54,0-5.08,0-7.61,0-.39,0-.47-.12-.47-.48C50,63.06,50,61.18,50,59.29Zm5.5-.76c-.61,0-1.23,0-1.85,0-.37,0-.53.07-.52.49,0,1.06,0,2.13,0,3.2,0,.39.1.52.5.51,1,0,2.1,0,3.15,0a3,3,0,0,0,.85-.05A2.27,2.27,0,0,0,58.4,59a1.48,1.48,0,0,0-1.15-.5Z" transform="translate(-6.55 -6.46)"></path>
  <path class="cls-5" d="M50,38.83c0-1.38,0-2.76,0-4.14,0-.3.07-.41.39-.41,2.33,0,4.66,0,7,0a3.47,3.47,0,0,1,3.74,3.31,9.33,9.33,0,0,1,0,2.69,3.4,3.4,0,0,1-3.17,3,18.3,18.3,0,0,1-2.34.08c-1.72,0-3.43,0-5.15,0-.38,0-.48-.11-.47-.48C50,41.57,50,40.2,50,38.83ZM56.8,41c.4,0,.8,0,1.2,0s.46-.09.42-.42S58.53,40,58,40H55.52c-.12,0-.26,0-.33.14a.6.6,0,0,0,.56.92Z" transform="translate(-6.55 -6.46)"></path>
  <path class="cls-3" d="M55.45,58.53h1.8a1.48,1.48,0,0,1,1.15.5,2.27,2.27,0,0,1-.81,3.63,3,3,0,0,1-.85.05c-1.05,0-2.1,0-3.15,0-.4,0-.51-.12-.5-.51,0-1.07,0-2.14,0-3.2,0-.42.15-.5.52-.49C54.22,58.55,54.84,58.53,55.45,58.53Z" transform="translate(-6.55 -6.46)"></path>
  <path class="cls-3" d="M56.8,41h-1a.6.6,0,0,1-.56-.92c.07-.16.21-.14.33-.14H58c.5,0,.35.36.39.64s-.09.44-.42.42S57.2,41,56.8,41Z" transform="translate(-6.55 -6.46)"></path>
</svg>
