<?xml version="1.0" encoding="UTF-8"?>
<svg xmlns="http://www.w3.org/2000/svg" id="Layer_1" data-name="Layer 1" viewBox="0 0 498.66 197.43">
  <defs>
    <style>.cls-1{font-size:49.31px;font-family:Bauhaus93, "Bauhaus 93";}.cls-1,.cls-2{fill:#e32629;}.cls-3{fill:#ae372d;}</style>
  </defs>
  <text class="cls-1" transform="translate(458.32 41.1) scale(1.09 1)">®</text>
  <path class="cls-2" d="M1.16,121.88,1,77.71c0-8.4,0-16.81,0-25.21C1,37.93,13.76,21.72,27.85,18a37.12,37.12,0,0,1,11.75-1c.06.86.71.73,1.28.8a30,30,0,0,1,5.4.73C57.74,22,66.84,28.4,71.46,40c.67,1.66,1.54,1.59,2.55.42a23.23,23.23,0,0,0,2.47-3.71C81.27,28.3,88.2,22.31,97.56,19.9a38.17,38.17,0,0,1,29.52,4.17c10.43,6,15.69,15.12,15.86,27.19.24,16.22-.27,32.45.42,48.68.64,15.2-.22,30.44.49,45.67.45,9.64.17,19.32.07,29,0,5.81-3,10.21-7.74,13.21-6,3.8-15.47,5.25-22.65-1.3-3.47-3.16-6-7.08-6.07-11.89-.31-19.8.08-39.61-.44-59.42-.46-17.64-.13-35.31-.07-53a11.5,11.5,0,0,0-1.07-4.8c-1.29-2.88-6.12-5.58-9-5.12-2.61.42-5.45,4-5.89,7.31a91.54,91.54,0,0,0-.34,11.58c-.24,31.47,0,62.94-.62,94.4-.07,3.33,0,6.67,0,10a8,8,0,0,1-.7,3.39c-5.23,11.57-20,15-28.71,7.1-3.22-2.93-6-6.2-6.09-10.72-.37-38,.47-75.93-.46-113.89-.1-4.28-1.44-7.32-5.26-9-4.72-2-11.11-.69-11.68,6.16-.33,3.94-.6,7.94-.6,11.93q0,33.85,0,67.72c0,13-.3,25.95-.44,38.92a6.71,6.71,0,0,1-.69,2.88C31,189.26,18.8,192.43,9.86,186.94c-5.52-3.39-8.19-7.76-8-14.52.35-16,.12-32,.07-48C1.88,123.6,2.55,122.4,1.16,121.88Z" transform="translate(-1.03 -0.41)"></path>
  <path class="cls-2" d="M351.37,36.35a2.7,2.7,0,0,1,1.77-1.62,11,11,0,0,0,1.24-.75,57.59,57.59,0,0,1,19-10.59,73.29,73.29,0,0,1,32.1-2.76c13.46,1.86,24.9,7.68,35.14,16.18,7.61,6.33,12.92,14.51,17,23.35,6.33,13.63,9.05,28.19,9.65,43.13a137.31,137.31,0,0,1-.33,14.19,118.22,118.22,0,0,1-5.58,30C456.61,162,448.25,174,435.77,183c-11,7.89-23.65,10.93-36.93,11.74a58.35,58.35,0,0,1-13.88-.89c-6.13-1.09-12.19-2.23-17.87-4.95-5-2.41-9.28-6.05-13.93-9.07a2,2,0,0,1-1.37-1.21L344,170.34l-.66-.77a1.23,1.23,0,0,0-.84-1.23l-.65-.83c-.42-1.78-2-2.86-2.76-4.38a106.94,106.94,0,0,1-10-25.76,136.1,136.1,0,0,1-1.73-48.81,103.3,103.3,0,0,1,8.26-29.25c1.84-4.07,4.2-7.85,6.28-11.78.22-.3.44-.59.67-.88Zm64,120.25a68.38,68.38,0,0,0,8.37-8.39.67.67,0,0,0,.58-.85c1.19-2.25,2.39-4.49,3.58-6.73a3.42,3.42,0,0,0,.87-2.36,1.73,1.73,0,0,1,.59-1.63c.67-1.49,1.44-3,1.3-4.67a1.15,1.15,0,0,1,.29-1.31c.53-.3.5-.71.26-1.18a1.8,1.8,0,0,1,.32-1.84.77.77,0,0,0,.17-1.15,1.12,1.12,0,0,1,.2-1.33c.63-.3.6-.73.24-1.22a1.18,1.18,0,0,1,.3-1.3c.77-1,.49-2.09.18-3.17a18.2,18.2,0,0,1,.31-6.86,14,14,0,0,0,0-7.69,17,17,0,0,1-.3-6.88,8,8,0,0,0-.66-5.66,1.59,1.59,0,0,1-.31-1.82.74.74,0,0,0-.16-1.18,1.77,1.77,0,0,1-.31-1.84,5,5,0,0,0-.71-3.14,1.13,1.13,0,0,1-.32-1.32c.29-.33.16-.55-.18-.72a1.18,1.18,0,0,1-.34-1.29A17.86,17.86,0,0,0,427,73.89c-.43-.7-.92-1.37-1.3-2.1a32.24,32.24,0,0,0-10.3-12.25,20.72,20.72,0,0,0-8-4.25A41.47,41.47,0,0,0,391,53.68Q374,55.42,366.25,70.24c-5.05,9.6-6.35,20.2-6.77,30.85a127.36,127.36,0,0,0,.87,24.13c1.19,7.77,3.06,15.3,7.14,22.08,2.12,3.52,4.6,6.89,8.39,8.92l4.63,3.06c2,.66,3.18.75,4.69,1.69a6.54,6.54,0,0,0,1.81.36c1.69.44,3.32,1.24,5.14.7a9,9,0,0,0,2.34.2h1.29a2.5,2.5,0,0,1,2.37-.17c2.13.47,4.11-.26,6.12-.78a1.17,1.17,0,0,1,1.31-.3c.74.29,1.18-.21,1.65-.63a1.1,1.1,0,0,1,1.13-.28c.38.14.71.14.92-.28a3.76,3.76,0,0,1,2.56-1.21c.45.12.82.11.94-.45a2.12,2.12,0,0,1,1.67-1A.67.67,0,0,0,415.34,156.6Z" transform="translate(-1.03 -0.41)"></path>
  <path class="cls-2" d="M223.3,149.34l.66-1.2a12.84,12.84,0,0,0,2.4-3.68l.51-.67a5.32,5.32,0,0,0,1.86-1.82l.81-.78c6-3.44,12.08-3.18,18.11,0l.89.71c5.44,4,7,9.45,5.46,15.8-3.23,12.92-11.12,22.28-22.69,28.55-6.43,3.48-13.46,4.91-20.73,5.63A57.9,57.9,0,0,1,185.89,189c-3.43-1.16-6.24-3.38-9.27-5.22l-1-1c-.22-.3,1.92,1.35,1.49,1.31l-2.7-1.86-1.31-1.13c0-.47,1,.19.48.21a3.55,3.55,0,0,1-2.2-2l-.43-.43a5.4,5.4,0,0,1-2.59-2.82c-.1-.78,1,1.55-1.23-1.62l-.78-1a31.33,31.33,0,0,0-3.45-5.57l-.78-1.43a116.11,116.11,0,0,1-7.06-23.07A150.32,150.32,0,0,1,153,120.9a100.17,100.17,0,0,1,2.32-25.16c1.65-7.4,3.81-14.57,7.58-21.17,1.79-3.14,4-6.07,6-9.1a21.39,21.39,0,0,1,5.85-5.8,1.12,1.12,0,0,0,1.11-.82l.81-.63a1.21,1.21,0,0,0,1.06-.59l.85-.81c1.26-.6,2.55-1.14,3.78-1.8a47.47,47.47,0,0,1,22.28-5.32,53,53,0,0,1,17.83,2.66c10.77,3.63,19.82,9.8,26,19.52A58.84,58.84,0,0,1,257,113.29c-1.75,11.82-9.57,17.78-20.35,18.41-8.29.48-16.61.44-24.93.54-7.41.08-14.82,0-22.23,0-3.11,0-3.76.55-3.55,3.67.68,9.75,4.79,17.7,12.88,23.35,4.88,3.4,14.42,1.8,17.66-1.69l.77-.49a2.89,2.89,0,0,0,2-2.1,2.38,2.38,0,0,1,1.17-1.38c1.11-1.29,1.11-1.29,1.38-2.12l.69-.95A2.31,2.31,0,0,0,223.3,149.34Zm-31.93-43.65c1.54.36,3.2-.23,4.69.57a33.06,33.06,0,0,0,4.76.41c3.33-.13,6.7.62,10-.4,2.67-.84,5.43-.38,8.14-.46,4.6-.14,6.31-1.68,6.32-6.34a16.33,16.33,0,0,0-6.84-14c-5.18-5.06-14.9-5.51-20.56-1.85-6.34,4.1-9.58,10.1-10.47,17.56C186.89,105.37,187.14,105.84,191.37,105.69Z" transform="translate(-1.03 -0.41)"></path>
  <path class="cls-3" d="M1.16,121.88c1.39.52.72,1.72.73,2.57.05,16,.28,32-.07,48-.15,6.76,2.52,11.13,8,14.52,8.94,5.49,21.09,2.32,25.45-6.83a6.71,6.71,0,0,0,.69-2.88c.14-13,.39-25.95.44-38.92q.12-33.87,0-67.72c0-4,.27-8,.6-11.93.57-6.85,7-8.21,11.68-6.16,3.82,1.65,5.16,4.69,5.26,9,.93,38,.09,75.93.46,113.89.05,4.52,2.87,7.79,6.09,10.72,8.73,7.94,23.48,4.47,28.71-7.1a8,8,0,0,0,.7-3.39c0-3.33-.07-6.67,0-10,.59-31.46.38-62.93.62-94.4a91.54,91.54,0,0,1,.34-11.58c.44-3.33,3.28-6.89,5.89-7.31,2.93-.46,7.76,2.24,9,5.12a11.5,11.5,0,0,1,1.07,4.8c-.06,17.66-.39,35.33.07,53,.52,19.81.13,39.62.44,59.42.07,4.81,2.6,8.73,6.07,11.89,7.18,6.55,16.7,5.1,22.65,1.3,4.69-3,7.69-7.4,7.74-13.21.1-9.66.38-19.34-.07-29-.71-15.23.15-30.47-.49-45.67-.69-16.23-.18-32.46-.42-48.68-.17-12.07-5.43-21.15-15.86-27.19A38.17,38.17,0,0,0,97.56,19.9c-9.36,2.41-16.29,8.4-21.08,16.78A23.23,23.23,0,0,1,74,40.39c-1,1.17-1.88,1.24-2.55-.42C66.84,28.4,57.74,22,46.28,18.47a30,30,0,0,0-5.4-.73c-.57-.07-1.22.06-1.28-.8,6.71-.27,12.51,2.39,18,5.8,6.12,3.81,11.56,8.38,15.34,14.72,1.18,2,1.93.38,2.6-.71A44.7,44.7,0,0,1,86.63,24.4c12.4-9.34,31.72-7.77,43.14.62,6.12,4.5,11.77,9.28,14.73,16.53a28.86,28.86,0,0,1,2.4,11.12c0,17.15,0,34.31.21,51.47.33,23.73.72,47.46,1,71.19.12,10.46-8,17.65-17.58,18.69-9.45,1-21.31-8.5-23.3-16.36a18.58,18.58,0,0,1-.62-4.69q-.09-33.6-.23-67.22c-.06-14.65-.2-29.29-.3-43.94,0-4.33-1.19-6.27-3.89-6.5C98.92,55,95.6,57.83,95,61.41a27.94,27.94,0,0,0-.23,4c-.19,24.15-.23,48.3-.59,72.45-.2,12.83-.34,25.66-.12,38.47.13,7.24-6.1,14.17-12.17,16-6.82,2-13,1.24-18.7-3.46-3.32-2.73-6.63-5.24-8.43-9.3a9.76,9.76,0,0,1-.88-4.08q0-28.23-.13-56.47c-.09-17-.26-34-.41-51,0-2.82,0-5.65-.24-8.46-.35-4.6-4-6.44-8.13-4.21-3.6,1.93-4.28,5.27-4.29,8.93q-.21,47.6-.41,95.19c0,5.66-.49,11.34-.18,17,.41,7.47-3.41,11.84-9.66,14.71a16.68,16.68,0,0,1-13.82.3c-6-2.5-11.25-6-14.73-11.79a4.85,4.85,0,0,1-.79-2.57Z" transform="translate(-1.03 -0.41)"></path>
  <path class="cls-2" d="M307.1,108.73l.93.68.5.31a12.38,12.38,0,0,1,1.46,1.16c2.56,2.75,2.94,6.08,3,9.69.13,6.93-4.06,11.21-10,12.73-2,.51-4,.35-5.92.64a61.79,61.79,0,0,1-13.18.17c-4-.26-8.11-.54-11.67-2.84l-.9-.54-.58-.45a13.89,13.89,0,0,1-2.91-2.92c-.09-.16-.18-.33-.28-.49-.21-.33-.43-.66-.65-1-1.56-3.73-1.11-7.47,0-11.2l.57-1c.3-.49.6-1,.91-1.47a8.4,8.4,0,0,1,2.43-2.43C282.77,104.18,294.87,104.14,307.1,108.73Z" transform="translate(-1.03 -0.41)"></path>
  <path class="cls-3" d="M353.16,179.79c4.65,3,8.88,6.66,13.93,9.07,5.68,2.72,11.74,3.86,17.87,4.95a58.35,58.35,0,0,0,13.88.89c13.28-.81,25.94-3.85,36.93-11.74,12.48-8.94,20.84-21,25.64-35.53A118.22,118.22,0,0,0,467,117.48a137.31,137.31,0,0,0,.33-14.19c-.6-14.94-3.32-29.5-9.65-43.13-4.11-8.84-9.42-17-17-23.35C430.4,28.31,419,22.49,405.5,20.63a73.29,73.29,0,0,0-32.1,2.76,57.59,57.59,0,0,0-19,10.59,11,11,0,0,1-1.24.75c3.31-3.71,7.5-6.25,11.85-8.42,16.15-8.06,33.07-9.5,50.18-4.11,22.35,7,38.17,21.64,47.43,43.25,7.83,18.25,9.79,37.37,8.35,56.94-.95,13-3.77,25.66-9.53,37.46-9.69,19.85-25.25,32.23-47.05,36.43-21.62,4.16-41.32.11-58.58-14C354.86,181.53,353.57,181.11,353.16,179.79Z" transform="translate(-1.03 -0.41)"></path>
  <path class="cls-3" d="M216.33,157.81c-3.4,3.36-12.68,4.84-17.48,1.5-8.09-5.65-12.2-13.6-12.88-23.35-.21-3.12.44-3.65,3.55-3.67,7.41,0,14.82,0,22.23,0,8.32-.1,16.64-.06,24.93-.54,10.78-.63,18.6-6.59,20.35-18.41a58.84,58.84,0,0,0-8.61-41.41c-6.15-9.72-15.2-15.89-26-19.52a53,53,0,0,0-17.83-2.66A47.47,47.47,0,0,0,182.34,55c-1.17.63-2.39,1.15-3.59,1.71,3.39-2.92,7.53-4.42,11.7-5.6,27.4-7.78,55,6.91,65.81,30.53,5.81,12.68,7.6,26.06,3.34,39.65-2.32,7.38-7.71,11.65-15.46,12.74-11.34,1.59-22.77.78-34.16,1.15-5.66.19-11.32.08-17,.11-2.41,0-3.51,1-3.27,3.31a34,34,0,0,0,6.8,17.67c2.86,3.7,6.64,4.34,10.88,4.15C210.6,160.29,213.44,159,216.33,157.81Z" transform="translate(-1.03 -0.41)"></path>
  <path class="cls-3" d="M176.65,183.8c3,1.84,5.82,4,9.24,5.2a57.9,57.9,0,0,0,24.69,2.89c7.27-.72,14.3-2.15,20.73-5.63,11.57-6.27,19.46-15.63,22.69-28.55,1.58-6.35,0-11.79-5.46-15.8a15.46,15.46,0,0,1,9.51,18c-4.57,17.78-16.14,28.67-33.67,33.29-11.34,3-22.76,3-33.93-.94A34,34,0,0,1,176.65,183.8Z" transform="translate(-1.03 -0.41)"></path>
  <path class="cls-3" d="M272.22,131.27c3.56,2.3,7.65,2.58,11.67,2.84a61.79,61.79,0,0,0,13.18-.17c2-.29,3.94-.13,5.92-.64,5.94-1.52,10.13-5.8,10-12.73-.06-3.61-.44-6.94-3-9.69,3.73.7,6.69,5.84,7.16,10.32.86,8.34-4.15,14.27-12.49,15.36a75.22,75.22,0,0,1-22.12-.09C278.62,135.83,274.79,134.73,272.22,131.27Z" transform="translate(-1.03 -0.41)"></path>
  <path class="cls-3" d="M247.65,141.2c-6-3.19-12.05-3.45-18.08,0,3.67-3.67,8.23-3.3,12.74-2.63A7.55,7.55,0,0,1,247.65,141.2Z" transform="translate(-1.03 -0.41)"></path>
  <path class="cls-3" d="M351.37,36.35l-8.85,10.3A30,30,0,0,1,351.37,36.35Z" transform="translate(-1.03 -0.41)"></path>
  <path class="cls-3" d="M344,170.34l7.79,8.24" transform="translate(-1.03 -0.41)"></path>
  <path class="cls-3" d="M266.92,114.68c-1.13,3.73-1.58,7.47,0,11.2A10.51,10.51,0,0,1,266.92,114.68Z" transform="translate(-1.03 -0.41)"></path>
  <path class="cls-3" d="M268.4,112.17c-.31.49-.61,1-.91,1.47" transform="translate(-1.03 -0.41)"></path>
  <path class="cls-3" d="M177.83,57.42a1.25,1.25,0,0,1-1.18.8" transform="translate(-1.03 -0.41)"></path>
  <path class="cls-3" d="M175.84,58.85a1.12,1.12,0,0,1-1.11.82" transform="translate(-1.03 -0.41)"></path>
  <path class="cls-3" d="M171,178.84l.43.43" transform="translate(-1.03 -0.41)"></path>
  <path class="cls-3" d="M415.35,59.54c-3.37-.8-6.53-2.35-10-2.74-7.57-.85-15-.57-21.94,2.89-7.79,3.87-12.57,10.4-15.49,18.43-2.42,6.69-3.46,13.66-4.14,20.71a130.47,130.47,0,0,0,.65,30.08c1.38,10.12,4.59,19.5,11.48,27.31-3.79-2-6.27-5.4-8.39-8.92-4.08-6.78-5.95-14.31-7.14-22.08a127.36,127.36,0,0,1-.87-24.13c.42-10.65,1.72-21.25,6.77-30.85Q374,55.44,391,53.68a41.47,41.47,0,0,1,16.42,1.61A20.72,20.72,0,0,1,415.35,59.54Z" transform="translate(-1.03 -0.41)"></path>
  <path class="cls-3" d="M218.42,85.52c-3.51-.48-6.91-1.51-10.56-1-6.39.83-10.63,4.53-13.51,9.87-1.87,3.46-3.49,7.16-3,11.33-4.23.15-4.48-.32-4-4.46.89-7.46,4.13-13.46,10.47-17.56C203.52,80,213.24,80.46,218.42,85.52Z" transform="translate(-1.03 -0.41)"></path>
</svg>
