<?xml version="1.0" encoding="UTF-8"?>
<svg xmlns="http://www.w3.org/2000/svg" xmlns:xlink="http://www.w3.org/1999/xlink" id="Layer_1" data-name="Layer 1" viewBox="0 0 2499.92 1697.93">
  <defs>
    <style>.cls-1,.cls-22{fill:#fff;}.cls-1{stroke:#fff;stroke-miterlimit:24.06;stroke-width:45.26px;}.cls-2{fill:url(#linear-gradient);}.cls-3{fill:url(#linear-gradient-2);}.cls-4{fill:url(#linear-gradient-3);}.cls-5{fill:url(#linear-gradient-4);}.cls-6{fill:url(#linear-gradient-5);}.cls-7{fill:url(#linear-gradient-6);}.cls-8{fill:url(#linear-gradient-7);}.cls-9{fill:url(#linear-gradient-8);}.cls-10{fill:url(#linear-gradient-9);}.cls-11{fill:#cc203c;}.cls-12{fill:url(#linear-gradient-10);}.cls-13{fill:url(#linear-gradient-11);}.cls-14{fill:url(#linear-gradient-12);}.cls-15{fill:url(#linear-gradient-13);}.cls-16{fill:url(#linear-gradient-14);}.cls-17{fill:url(#linear-gradient-15);}.cls-18{fill:url(#linear-gradient-16);}.cls-19{fill:url(#linear-gradient-17);}.cls-20{fill:url(#linear-gradient-18);}.cls-21{fill:url(#linear-gradient-19);}</style>
    <linearGradient id="linear-gradient" x1="910.75" y1="1037.48" x2="940.75" y2="1037.48" gradientTransform="matrix(6.16, 0, 0, -6.16, -4488.53, 6515.99)" gradientUnits="userSpaceOnUse">
      <stop offset="0" stop-color="#f9e196"></stop>
      <stop offset="0.13" stop-color="#e7ae76"></stop>
      <stop offset="0.26" stop-color="#da7f5d"></stop>
      <stop offset="0.36" stop-color="#d4614e"></stop>
      <stop offset="0.41" stop-color="#d25349"></stop>
      <stop offset="1" stop-color="#cc203c"></stop>
    </linearGradient>
    <linearGradient id="linear-gradient-2" x1="942.11" y1="1037.28" x2="970.77" y2="1027.95" xlink:href="#linear-gradient"></linearGradient>
    <linearGradient id="linear-gradient-3" x1="972.36" y1="1027.29" x2="995.02" y2="1009.29" xlink:href="#linear-gradient"></linearGradient>
    <linearGradient id="linear-gradient-4" x1="997.58" y1="1008.69" x2="1013.58" y2="984.03" xlink:href="#linear-gradient"></linearGradient>
    <linearGradient id="linear-gradient-5" x1="1015.84" y1="983.24" x2="1023.84" y2="953.24" xlink:href="#linear-gradient"></linearGradient>
    <linearGradient id="linear-gradient-6" x1="1207.64" y1="704.14" x2="1241.52" y2="704.14" gradientTransform="matrix(0, 6.16, 6.16, 0, -2511.16, -6766.1)" xlink:href="#linear-gradient"></linearGradient>
    <linearGradient id="linear-gradient-7" x1="1024.58" y1="921.28" x2="1015.92" y2="893.28" xlink:href="#linear-gradient"></linearGradient>
    <linearGradient id="linear-gradient-8" x1="1015.12" y1="891.72" x2="997.12" y2="868.38" xlink:href="#linear-gradient"></linearGradient>
    <linearGradient id="linear-gradient-9" x1="481.42" y1="865.57" x2="457.42" y2="850.23" gradientTransform="matrix(6.16, 0, 0, -6.16, -1322.5, 6515.99)" xlink:href="#linear-gradient"></linearGradient>
    <linearGradient id="linear-gradient-10" x1="364.82" y1="849.19" x2="340.82" y2="867.19" gradientTransform="matrix(6.16, 0, 0, -6.16, -1322.5, 6515.99)" xlink:href="#linear-gradient"></linearGradient>
    <linearGradient id="linear-gradient-11" x1="853.87" y1="868.26" x2="835.87" y2="892.26" xlink:href="#linear-gradient"></linearGradient>
    <linearGradient id="linear-gradient-12" x1="835.87" y1="892.84" x2="826.54" y2="922.17" xlink:href="#linear-gradient"></linearGradient>
    <linearGradient id="linear-gradient-13" x1="827.6" y1="954.22" x2="834.93" y2="982.88" xlink:href="#linear-gradient"></linearGradient>
    <linearGradient id="linear-gradient-14" x1="837.11" y1="985.12" x2="854.44" y2="1009.12" xlink:href="#linear-gradient"></linearGradient>
    <linearGradient id="linear-gradient-15" x1="855.14" y1="1009.81" x2="879.8" y2="1026.48" xlink:href="#linear-gradient"></linearGradient>
    <linearGradient id="linear-gradient-16" x1="881.44" y1="1028.32" x2="909.44" y2="1036.32" xlink:href="#linear-gradient"></linearGradient>
    <linearGradient id="linear-gradient-17" x1="1126.43" y1="824.65" x2="1112.1" y2="771.4" gradientTransform="matrix(6.02, 0, 0, -6.02, -5647.02, 6218.26)" gradientUnits="userSpaceOnUse">
      <stop offset="0" stop-color="#f2ca30"></stop>
      <stop offset="0.09" stop-color="#f4ce45"></stop>
      <stop offset="0.47" stop-color="#fae5a2"></stop>
      <stop offset="0.64" stop-color="#fceec7"></stop>
      <stop offset="0.75" stop-color="#f9e19b"></stop>
      <stop offset="0.92" stop-color="#f4d15e"></stop>
      <stop offset="1" stop-color="#f2ca44"></stop>
    </linearGradient>
    <linearGradient id="linear-gradient-18" x1="1174.89" y1="816.79" x2="1181.72" y2="777.2" xlink:href="#linear-gradient-17"></linearGradient>
    <linearGradient id="linear-gradient-19" x1="1089" y1="927.49" x2="1252.43" y2="927.49" gradientTransform="matrix(6.22, 0, 0, -6.22, -6082.25, 6507.71)" gradientUnits="userSpaceOnUse">
      <stop offset="0" stop-color="#fff"></stop>
      <stop offset="0.03" stop-color="#fefcf4"></stop>
      <stop offset="0.08" stop-color="#fcf4d5"></stop>
      <stop offset="0.14" stop-color="#f9e8a4"></stop>
      <stop offset="0.22" stop-color="#f5d761"></stop>
      <stop offset="0.27" stop-color="#f2ca30"></stop>
      <stop offset="0.31" stop-color="#f3cd3d"></stop>
      <stop offset="0.38" stop-color="#f5d660"></stop>
      <stop offset="0.48" stop-color="#f9e598"></stop>
      <stop offset="0.6" stop-color="#fdf8e4"></stop>
      <stop offset="0.64" stop-color="#fff"></stop>
      <stop offset="0.78" stop-color="#fae9b2"></stop>
      <stop offset="0.93" stop-color="#f4d363"></stop>
      <stop offset="1" stop-color="#f2ca44"></stop>
    </linearGradient>
  </defs>
  <path class="cls-1" d="M835.77,1571.22c10.76.51,22,.84,33,.53l68.85-7.24c39.22-7.1,80-19.47,122.25-37.94,23,32.16,43.76,56.86,69.33,81.53l43.1,38.11q10.51,8.63,21.23,17c74.62-144.29,106.6-268.75,131.26-433.41a517.4,517.4,0,0,1-323.6-33.67C969.68,1329.45,915.33,1459.67,835.77,1571.22Z" transform="translate(-0.04 0)"></path>
  <path class="cls-1" d="M1701.75,1547q-14.6.75-29.21.91l-64.65-1.94c-56.53-3.93-114.07-13.48-170.85-27.32-24.22,34-53.67,64.21-83.58,90.58l-43.89,36.13q-11.38,8.78-23,17.31a940.31,940.31,0,0,0-50-91.55c45.13-108.3,69-212.49,88.23-341.28A511.6,511.6,0,0,0,1494,1158.9,3467.47,3467.47,0,0,0,1701.75,1547Z" transform="translate(-0.04 0)"></path>
  <path class="cls-1" d="M1318.19,79.12C1264,71.6,1215.72,36.4,1179.76,25.74c-47-13.91-75.62,21.45-70.3,53.34-53.84,9.56-110.59-9-148.06-8-49,1.27-65.3,43.74-50.4,72.4-48.26,25.77-108,25.66-143.36,38.17-46.21,16.35-48.59,61.78-25.56,84.43-37.93,39.42-94.78,57.79-124.54,80.61-38.89,29.83-27.13,73.77,1.78,88.2-23.9,49.21-72.3,84.24-93.54,115.15-27.77,40.39-3,78.54,29,83.33C547.21,687.58,512,735.85,501.34,771.8c-13.92,47,21.42,75.63,53.29,70.31,9.6,53.87-9,110.65-8,148.13,1.27,49,43.74,65.31,72.4,50.4,25.77,48.26,25.67,108,38.18,143.36,16.36,46.21,61.78,48.6,84.44,25.56,39.42,37.94,57.78,94.79,80.61,124.54,29.83,38.89,73.77,27.13,88.2-1.79,49.22,23.9,84.25,72.3,115.15,93.55,40.39,27.76,78.55,3,83.33-29,54.19,7.52,102.47,42.73,138.42,53.38,47,13.92,75.63-21.42,70.31-53.29,53.87-9.59,110.65,9,148.13,8,49-1.28,65.31-43.73,50.41-72.41,48.26-25.77,108-25.66,143.35-38.17,46.22-16.37,48.6-61.79,25.56-84.45,37.94-39.42,94.8-57.79,124.55-80.61,38.89-29.84,27.13-73.78-1.8-88.2,23.9-49.22,72.3-84.26,93.55-115.16,27.77-40.4,3-78.55-29-83.33,7.52-54.2,42.72-102.47,53.38-138.43,13.92-47-21.42-75.63-53.3-70.31-9.6-53.86,9-110.65,8-148.14-1.28-49-43.73-65.31-72.41-50.4-25.77-48.26-25.68-108-38.19-143.36-16.37-46.21-61.78-48.59-84.45-25.55-39.42-37.94-57.78-94.79-80.61-124.55-29.84-38.89-73.78-27.12-88.21,1.79-49.21-23.9-84.25-72.29-115.16-93.53-40.38-27.78-78.53-3-83.32,29Z" transform="translate(-0.04 0)"></path>
  <path class="cls-2" d="M1132.91,228.62a518.2,518.2,0,0,1,161.37,0l23.9-149.5C1264,71.6,1215.72,36.4,1179.76,25.74c-47-13.91-75.62,21.43-70.31,53.31l23.46,149.57Z" transform="translate(-0.04 0)"></path>
  <path class="cls-3" d="M1294.28,228.63a518.06,518.06,0,0,1,153.47,49.87l68.93-134.81c-49.22-23.9-84.25-72.29-115.16-93.53-40.39-27.77-78.54-3-83.33,29l-23.91,149.51Z" transform="translate(-0.04 0)"></path>
  <path class="cls-4" d="M1447.75,278.5a518.23,518.23,0,0,1,130.54,94.85l107.22-106.9c-39.43-37.94-57.79-94.79-80.62-124.55-29.83-38.89-73.77-27.12-88.2,1.8l-68.94,134.8Z" transform="translate(-0.04 0)"></path>
  <path class="cls-5" d="M1578.29,373.35a517.21,517.21,0,0,1,94.84,130.55l135-68.54c-25.77-48.26-25.67-108-38.18-143.36-16.37-46.21-61.78-48.59-84.44-25.55l-107.22,106.9Z" transform="translate(-0.04 0)"></path>
  <path class="cls-6" d="M1673.13,503.9A517.81,517.81,0,0,1,1723,657.37l149.57-23.46c-9.6-53.86,9-110.65,8-148.14-1.28-49-43.74-65.3-72.41-50.39Z" transform="translate(-0.04 0)"></path>
  <path class="cls-7" d="M1723,657.37a517.73,517.73,0,0,1,0,161.36l149.51,23.92c7.52-54.2,42.72-102.47,53.37-138.43,13.92-47-21.43-75.62-53.29-70.3L1723,657.37Z" transform="translate(-0.04 0)"></path>
  <path class="cls-8" d="M1723,818.73a517.69,517.69,0,0,1-49.87,153.46l134.8,68.94c23.89-49.22,72.28-84.25,93.53-115.15,27.77-40.4,3-78.54-29-83.33Z" transform="translate(-0.04 0)"></path>
  <path class="cls-9" d="M1673.11,972.19a517.76,517.76,0,0,1-94.85,130.54L1685.16,1210c37.94-39.43,94.78-57.79,124.54-80.61,38.89-29.84,27.12-73.77-1.8-88.2l-134.79-69Z" transform="translate(-0.04 0)"></path>
  <path class="cls-10" d="M1578.26,1102.73a518.11,518.11,0,0,1-130.54,94.83l68.53,135c48.26-25.77,108-25.67,143.35-38.18,46.21-16.36,48.59-61.78,25.55-84.44l-106.89-107.22Z" transform="translate(-0.04 0)"></path>
  <path class="cls-11" d="M1447.7,1197.57a518,518,0,0,1-153.46,49.86L1317.7,1397c53.86-9.6,110.65,9,148.13,8,49-1.28,65.3-43.74,50.39-72.41l-68.52-135Z" transform="translate(-0.04 0)"></path>
  <path class="cls-12" d="M979.43,1197.53a517.94,517.94,0,0,1-130.53-94.85l-107.22,106.9c39.42,37.94,57.78,94.78,80.6,124.53,29.84,38.89,73.77,27.13,88.2-1.79l68.95-134.79Z" transform="translate(-0.04 0)"></path>
  <path class="cls-11" d="M1132.49,1245.85A517.87,517.87,0,0,1,979,1196L910.1,1330.76c49.21,23.9,84.24,72.29,115.14,93.54,40.39,27.76,78.53,3,83.33-29l23.92-149.5Z" transform="translate(-0.04 0)"></path>
  <path class="cls-13" d="M848.89,1102.67a517.32,517.32,0,0,1-94.82-130.54l-135,68.53c25.77,48.25,25.66,108,38.17,143.35,16.35,46.21,61.78,48.59,84.43,25.55Z" transform="translate(-0.04 0)"></path>
  <path class="cls-14" d="M754.07,972.12a517.22,517.22,0,0,1-49.86-153.46L554.65,842.12c9.6,53.87-9,110.64-8,148.13,1.27,49,43.73,65.3,72.4,50.4l135-68.53Z" transform="translate(-0.04 0)"></path>
  <path class="cls-11" d="M704.22,818.66a517.26,517.26,0,0,1,0-161.35L554.74,633.4c-7.52,54.19-42.72,102.45-53.38,138.4-13.92,47,21.42,75.62,53.29,70.3l149.57-23.44Z" transform="translate(-0.04 0)"></path>
  <path class="cls-15" d="M704.24,657.31a517.87,517.87,0,0,1,49.87-153.46L619.33,434.91c-23.9,49.21-72.29,84.24-93.54,115.15-27.77,40.39-3,78.53,29,83.32l149.49,23.93Z" transform="translate(-0.04 0)"></path>
  <path class="cls-16" d="M754.11,503.86A517.37,517.37,0,0,1,849,373.34L742.08,266.12c-37.94,39.41-94.78,57.77-124.54,80.59-38.89,29.84-27.13,73.77,1.79,88.2l134.78,68.95Z" transform="translate(-0.04 0)"></path>
  <path class="cls-17" d="M849,373.33A518,518,0,0,1,979.52,278.5L911,143.5c-48.26,25.77-108,25.66-143.35,38.17C721.44,198,719.06,243.44,742.1,266.1Z" transform="translate(-0.04 0)"></path>
  <path class="cls-18" d="M979.52,278.51A517.18,517.18,0,0,1,1133,228.67L1109.53,79.1c-53.86,9.59-110.64-9-148.12-8-49,1.27-65.3,43.74-50.4,72.4l68.51,135Z" transform="translate(-0.04 0)"></path>
  <circle class="cls-11" cx="1213.56" cy="738.04" r="516.32"></circle>
  <path class="cls-11" d="M835.77,1571.22c10.76.51,22,.84,33,.53l68.85-7.24c39.22-7.1,80-19.47,122.25-37.94,23,32.16,43.76,56.86,69.33,81.53l43.1,38.11q10.51,8.63,21.23,17c74.62-144.29,106.6-268.75,131.26-433.41a517.4,517.4,0,0,1-323.6-33.67C969.68,1329.45,915.33,1459.67,835.77,1571.22Z" transform="translate(-0.04 0)"></path>
  <path class="cls-11" d="M1701.75,1547q-14.6.75-29.21.91l-64.65-1.94c-56.53-3.93-114.07-13.48-170.85-27.32-24.22,34-53.67,64.21-83.58,90.58l-43.89,36.13q-11.38,8.78-23,17.31a940.31,940.31,0,0,0-50-91.55c45.13-108.3,69-212.49,88.23-341.28A511.6,511.6,0,0,0,1494,1158.9,3467.47,3467.47,0,0,0,1701.75,1547Z" transform="translate(-0.04 0)"></path>
  <path class="cls-19" d="M937.73,1564.55a462.92,462.92,0,0,1-69,7.37c75.82-109.29,128.14-235.35,158.72-364.73a508.78,508.78,0,0,0,52.64,17.22c-28.3,119.73-75.39,236.73-142.33,340.14ZM1129.51,1608q20.64,19.93,42.8,38.16c70.25-137.15,102.08-257,126.14-411.2a517.87,517.87,0,0,1-57.6,6.24C1218.61,1376.86,1188.58,1486.69,1129.51,1608Z" transform="translate(-0.04 0)"></path>
  <path class="cls-20" d="M1422.51,1197.65A516.66,516.66,0,0,0,1471,1173q86.12,187.66,201.43,375.06c-21.34.23-42.79-.57-64.53-2.07a3457.15,3457.15,0,0,1-185.38-348.34Zm-112.88,447.54c14.37-11.13,29.07-22.89,43.78-35.86a979.7,979.7,0,0,0-81.05-136.77q-10.23,33.06-22.48,65.43C1271.62,1571.18,1291.21,1606.74,1309.63,1645.19Z" transform="translate(-0.04 0)"></path>
  <path class="cls-21" d="M1658.08,584.3C1594.42,400,1419.43,267.69,1213.53,267.69c-259.69,0-470.21,210.53-470.21,470.21s210.53,470.21,470.21,470.21c214.85,0,396-144.11,452.2-340.93l44.44,25.35c-65.84,211.68-263.3,365.38-496.64,365.38-287.2,0-520-232.83-520-520s232.82-520,520-520c228.81,0,423.1,147.78,492.65,353.11l-48.1,13.31Z" transform="translate(-0.04 0)"></path>
  <path d="M2436.27,505.78h-9.85V445.86h22.73c14.47,0,21.86,5.06,21.86,17.22,0,10.85-6.66,15.34-15.64,16.35l16.79,26.34H2461l-15.48-25.62h-9.27v25.63Zm11-34c7.38,0,13.9-.72,13.9-9.41,0-7.23-7.1-8.1-13-8.1h-11.87v17.51Zm-.29,57.18c-31.13,0-53.26-23.31-53.26-54.14,0-32.57,24.61-54.14,53.26-54.14,28.37,0,53,21.57,53,54.14S2475.35,528.94,2447,528.94Zm0-98.86c-23.45,0-41.69,18.38-41.69,44.73,0,24.6,15.92,44.72,41.69,44.72,23.16,0,41.4-18.23,41.4-44.72S2470.14,430.08,2447,430.08Z" transform="translate(-0.04 0)"></path>
  <path d="M2373,538.42c-33.23-35.37-77.47-54.07-127.92-54.07-47.11,0-90.24,18.23-124.75,52.74-16.94,16.95-31.43,37.78-42.91,60.94-9.73-23.68-22.75-44.46-38.88-61.63-33.23-35.37-77.47-54.07-127.93-54.07-47.1,0-90.23,18.24-124.73,52.75a202,202,0,0,0-14.34,16,103.83,103.83,0,0,0-24.92-41.67c-16.85-16.85-38.87-26.12-62-26.12a98.2,98.2,0,0,0-34.31,6H1522.15c-15.24,0-22.42-3.86-43.4-3.86-24.29,0-44.55,5.1-58,11.23-1.59.73-3.47,1.58-5.1,2.29-4.77-.75-10.77-2.7-18-5.08-17.45-5.75-41.35-13.63-75.66-13.63-49.89,0-95.68,17.93-129.36,50.49V484.33h-46.89c23.51-17.4,39-48.87,39-85.67,0-30.59-10.79-58.94-29.61-77.75-14.43-14.44-32.94-22.4-52.09-22.4s-37.65,8-52.09,22.4c-18.82,18.81-29.61,47.15-29.61,77.75s10.79,58.93,29.61,77.75a81.4,81.4,0,0,0,9.32,7.92h-43.41V283.45H812.64V396.52h14.53a19.58,19.58,0,0,1,19.58,19.54V481a166,166,0,0,0-34.93-3.66c-40.83,0-77.84,15.42-107,44.61a190.09,190.09,0,0,0-35.44,49.94,193.62,193.62,0,0,0-30.92-44.49C605.21,492,561,473.28,510.51,473.28A170.55,170.55,0,0,0,418.21,500c-1.09-55.53-21.64-107.24-56.87-142.47-30.06-30.06-68.43-45.93-111-45.93H.11V424.67H14.64a19.51,19.51,0,0,1,19.5,19.51v375a19.57,19.57,0,0,1-19.57,19.55H0v113H272.71V838.89H231a19.55,19.55,0,0,1-19.55-19.54l0-102.6H226.3c31.49,0,61.37-7.08,87.71-20.38-.31,5.39-.53,10.77-.53,16.16,0,82.27,25.22,154.68,69.19,198.65,33.12,33.12,76.65,50.63,125.87,50.63,51,0,95.84-17.64,129.75-51a180.55,180.55,0,0,0,29.91-38.93,191.6,191.6,0,0,0,34.17,47.33c29.19,29.19,66,44.62,106.48,44.62a174.18,174.18,0,0,0,48.09-6.53h291.23a163.76,163.76,0,0,0-1,18.39c0,34.81,12.91,66.12,37.34,90.56,32.22,32.22,80.85,49.25,140.63,49.25,111.37,0,191.86-62,204.36-153.67h176.47V848.76H1691.4a19.55,19.55,0,0,1-19.55-19.54l0-112.47h41.92c0,1.61-.12,3.22-.12,4.82,0,82.28,25.21,154.68,69.19,198.65,33.13,33.13,76.64,50.64,125.86,50.64,51,0,95.85-17.64,129.75-51a182.92,182.92,0,0,0,38.67-56c10.71,22.61,24.19,42.4,40.18,58.39,33.12,33.12,76.65,50.63,125.86,50.63,51,0,95.85-17.65,129.75-51,32.41-31.89,51.81-75.21,56.11-125.27l3.08-55.24c5.29-84.71-15.67-156.79-59-202.93ZM214.45,585.47V433.86c6.35,0,18.68,34.9,18.68,75.8,0,37.77-11.77,75.81-18.68,75.81ZM2243.87,613.1c8.37,0,12.92,19.41,12.92,44h-26.94C2229.85,637.68,2235.12,613.1,2243.87,613.1Zm6.58,236.84c-15.95,0-24.61-41.67-24.61-67.89h52.07C2277.91,811.56,2266.79,849.94,2250.45,849.94Z" transform="translate(-0.04 0)"></path>
  <path class="cls-11" d="M509.3,602.05c8.38,0,12.92,19.41,12.92,44H495.28c0-19.41,5.27-44,14-44Zm6.58,236.85c-15.95,0-24.61-41.68-24.61-67.9h52.07c0,29.51-11.11,67.9-27.46,67.9ZM1323.39,600c7.39,0,8.75,22.23,8.75,49.66s-1.37,49.67-8.75,49.67-8.76-22.24-8.76-49.67S1316,600,1323.39,600ZM1192,852.8c-4.74,0-8.43-5.71-8.43-9.3l0-80.54a138.13,138.13,0,0,0,19.74,19.84A115.62,115.62,0,0,0,1191,831.41a127.18,127.18,0,0,0,1,21.39Zm128.52,139.72c-36.46,0-44.45-16.66-40.36-34.07,10.15,3.42,27.2,5.8,41.76,5.8,21.93,0,38.47-5.34,50.23-4.42,6.49.51,7.9,3.69,7.9,8,0,13.69-30.26,24.64-59.53,24.64Zm182-144.37c-14-19.8-40.3-43.32-59.39-49.76,21.08-13.89,50.58-48.57,59.39-79.28Zm406.83-237.06c8.37,0,12.91,19.41,12.91,44h-26.94C1895.39,635.68,1900.66,611.09,1909.41,611.09ZM1916,847.94c-16,0-24.61-41.67-24.61-67.89h52.07C1943.45,809.56,1932.33,847.94,1916,847.94ZM844.8,785.7c0,25.88-1.63,41.09-12.26,41.09-16.88,0-21.47-51.45-21.47-101.69,0-27.39,5.28-72.53,15.27-94.84,1.77-3.94,4.35-6.89,8.94-6.89,4.09,0,7.58,2.28,8.32,7,1.16,7.47,1.2,17.77,1.2,30.12V785.7Zm182.93,55.22c0,12.05-15.07,13.06-15.07,1V588.82c6,0,15.07,7,15.07,17.07Z" transform="translate(-0.04 0)"></path>
  <path class="cls-22" d="M2245.11,527.74c-98.77,0-153.67,105.11-153.67,195.85,0,101.45,43.19,205.9,151.66,205.9,81.48,0,135.81-57.25,142.62-136.59h-65.28c-4.68,46.86-21.79,100.43-70.31,100.43-61.93,0-69.3-88-69.3-154.66h207.9c8-128.57-50.21-210.93-143.62-210.93Zm56.24,172.75H2181.83c0-48.87,18.42-133.58,62.28-133.58C2287.61,566.92,2303.71,626.52,2301.35,700.49Zm-390.7-174.76c-98.78,0-153.68,105.12-153.68,195.85,0,101.45,43.2,205.9,151.67,205.9,81.48,0,135.81-57.24,142.62-136.59H1986c-4.68,46.86-21.79,100.43-70.31,100.43-61.93,0-69.3-88-69.3-154.67h207.91C2062.31,608.09,2004.06,525.73,1910.65,525.73Zm56.25,172.76H1847.37c0-48.87,18.43-133.58,62.28-133.58C1953.15,564.91,1969.25,624.51,1966.9,698.49ZM1394.4,831.07c-17.08,0-66.3,3-77.34,3-29.79,0-46.2-13.05-46.2-31.13,0-10.05,5-12.05,10-19.09,85.38,26.75,186.82-22.72,186.82-117.51,0-69.3-20.09-73.32-20.09-92.4,0-9,14.44-15.07,31-15.07V532.76c-30.5,0-44.66,10-59.12,10-28.12,0-49.21-19.08-97.42-19.08-75,0-138.6,52.23-138.6,135.6,0,53.35,25.45,96.63,72.31,114.49-41.68,27.09-37,95.45-8,117.52-32.83,14.07-57.25,35.81-57.25,84.37,0,56.58,50.56,96.42,134.59,96.42,86.72,0,162.71-46.55,162.71-135.6,0-56.9-46.87-105.45-93.41-105.45Zm-69.3-277.21c32.48,0,48.21,50.87,48.21,93.41,0,55.9-20.44,97.42-50.22,97.42-32.49,0-49.22-48.87-49.22-98.43S1292,553.86,1325.1,553.86Zm-1,482.1c-65.94,0-88.38-34.49-88.38-74.32,0-21.09,15.06-42.19,38.16-53.23,36.16,22.09,74.32,8,98.43,8,27.12,0,51.23,17.73,51.23,53.23,0,40.83-52.23,66.29-99.44,66.29ZM510.54,516.7c-98.77,0-153.67,105.11-153.67,195.85,0,101.44,43.19,205.89,151.66,205.89,81.48,0,135.81-57.24,142.62-136.59H585.87c-4.68,46.86-21.78,100.44-70.31,100.44-61.92,0-69.3-88-69.3-154.67H654.17C662.2,599.06,604,516.7,510.54,516.7Zm56.24,172.75H447.26c0-48.87,18.43-133.58,62.28-133.58,43.5,0,59.6,59.6,57.24,133.58ZM226.3,673.38c77,0,148.65-53.24,148.65-168.74C375,429.31,329.41,355,250.4,355H43.5V381.3a34.11,34.11,0,0,1,34.1,34.21v432.4a34.17,34.17,0,0,1-34.13,34.22h0V908.4H229.31V882.29H202.22A34.22,34.22,0,0,1,168,848.07l.05-174.69ZM171.06,387.63h40.17c43.85,0,65.29,62.42,65.29,122,0,70.31-28.12,128.57-76.34,128.57-24.1,0-29.12-11.71-29.12-45.2V387.63ZM973.53,854.1l0-527.24-117.49,0v26.27A34.14,34.14,0,0,1,890.2,387.3V554.86c-18.77-23.45-47.86-34.15-78.34-34.15-68,0-130.57,59.91-130.57,212.92,0,107.47,49.56,186.82,127.56,186.82,29.34,0,56.68-6.09,77.33-31.14v24.61h121.55V888.31a34.18,34.18,0,0,1-34.2-34.17v0Zm-85.34-62.2c0,48.87-18.08,78.34-56.25,78.34-48.56,0-64.29-66.64-64.29-141.62C767.65,659,786.39,576,837,576c39.06,0,51.23,36.62,51.23,86.07V791.9Z" transform="translate(-0.04 0)"></path>
  <ellipse class="cls-22" cx="1103.08" cy="398.68" rx="38.3" ry="56.75"></ellipse>
  <path class="cls-22" d="M1149.25,852.94l.08-325.19H1031.82v26.11h8c11.39,0,27,11.71,27,36.15V853.24c0,18.9-16.24,34.17-35.13,34.17l.06,26.52h151.6l0-26.77A34.23,34.23,0,0,1,1149.25,852.94Zm535.41-326.2c-29.31,0-49,21-56.26,51.26V532.76H1510.9v26.11h8c11.39,0,27,11.71,27,36.16V858.26c0,18.9-16.24,34.17-35.14,34.17l.06,26h151.63V892.17A34.13,34.13,0,0,1,1628.4,858V613.69a22.51,22.51,0,0,1,22.51-22.51h0a22.6,22.6,0,0,1,22.61,22.51v59.69h60.36V587c0-33.14-21.09-60.26-49.22-60.26Z" transform="translate(-0.04 0)"></path>
</svg>
