<?xml version="1.0" encoding="UTF-8"?>
<svg xmlns="http://www.w3.org/2000/svg" id="Layer_1" data-name="Layer 1" viewBox="0 0 2308.39 1037.94">
  <defs>
    <style>.cls-1{fill:#872269;stroke:#f5d055;stroke-width:40.62px;}.cls-1,.cls-2,.cls-3{stroke-miterlimit:33.89;}.cls-1,.cls-2,.cls-3,.cls-4{fill-rule:evenodd;}.cls-2{fill:#010101;stroke:#010101;}.cls-2,.cls-3{stroke-width:2.8px;}.cls-3,.cls-4{fill:#fff;}.cls-3{stroke:#fff;}</style>
  </defs>
  <path class="cls-1" d="M1224,1031.69c202.44,0,435.28-84.5,520.71-173,60.57-62.73,61.63-67.33,79.29-106.42,22.87-50.61-43.32-112.83,2.66-147.23,34.88-26.09,73.51,21,111.66,0,76.36-42-43.34-198.88-52-217.28-10.07-21.44-13.29-36.7-15.11-48.56-1.28-8.21,1.89-22.07,4.4-32.8,17.65-72.52,33.65-114,61.69-227,5.17-20.81-7.89-35.52-19.44-41-12-5.67-33.44-6.29-57.09,4.08-101.71,44.58-194.53,87.37-289.14,127.11-9.12,3.82-17.63,3-25.21,2.52-36.35-2.29-130.81-56.57-321.89-56.57S939,169.84,902.68,172.13c-7.6.48-16.12,1.3-25.23-2.52C782.86,129.87,690,87.09,588.32,42.5c-23.67-10.37-45.11-9.75-57.1-4.08-11.53,5.48-24.59,20.19-19.42,41,28,113,44,154.51,61.68,227,2.53,10.73,5.68,24.6,4.41,32.8-1.82,11.86-5,27.12-15.13,48.56-8.66,18.41-29.66,18.61-41.28,36.76C491.31,471.74,538.63,510.5,551.41,565c11.41,48.67,8.68,73.62,31.54,124.24C600.6,728.35,643.8,796,704.37,858.74c85.43,88.45,318.26,173,520.69,173Z" transform="translate(-76.97 -14.06)"></path>
  <path class="cls-2" d="M2067.6,659.76c39.66,35,89.84,62.78,144.16,43.14,7.54-4.1,4.43-12.66,2.37-18.18-15.86-23.06-42.64-29.4-63.46-45.35-51.82-41.43-79.58-100.72-69.55-166.39,6.12-49.5,51.17-92.26,97-106.3,53.34-15.59,115.48-5.54,163.58,16.73L2368.2,418c2.36,38.33-1.37,73.17-.52,113-30-24.46-65.42-35.75-104.78-37.43-12.6.62-24.69,2.74-33.17,12.9-2,4.56-6,9.14-3.38,14.66C2279.18,562,2358.1,590.6,2376.9,662.59c21.75,64.9-8.41,134.27-68.18,166.08-61.76,32.82-154.63,29.09-215.44-3.16-5.62-7.53-19.69-21.31-25.81-27.81l-7.56-122.35,7.7-15.59ZM1798.13,828.09l7.21,13.55-177.1.55c-7.63-9-14.79-19.05-23.94-27.54-6-49.39-34.08-89.51-54.15-133.23-.54,53.49-4.57,112,10,160.87L1421.39,844c-9.64-7-15.29-18-22.92-27a273.71,273.71,0,0,0,8.43-71.21c-7.88,17.73-16.8,39-33.81,54.78-51,54.43-135.16,63.74-205,42.66-23.78-7.86-50.09-16.72-63.94-42.31-1.39,14.64,2.78,30.24,6.44,44.33l-136.21.69-22.45-28c6.24-37.39,6.37-78.76,5.53-118.61l-2.38-274.94c-1.14-15.13-2.79-30.76-7.45-44.34,22.67-2.22,41.37.65,62-1.55-3.56-4-11.65-5.45-16.74-9.94-25.93-23.49-51.41-52-44.66-88.41,3.35-20.71,18.81-41.53,38.4-50.79,19.09-10.26,48.37-8,66.13,4.46,24.91,22,50.38,50,45.66,85.88-2.79,26.77-24.29,49.65-48.94,57.94,11.12,2.43,23.71-.21,34.84,2.22l20.92,27.06-4.77,32.83L1100.29,641l1.19,20.67c36.16,39.54,86.28,60.29,138.65,47.22,6-2.57,13.57-6.67,15-13.24-1.59-9.58-11.26-17.56-19.36-23.05-56.74-26.74-117.2-75.65-127.36-141.14-9.55-53.9,11.72-102,52.81-135.18,57.61-45.92,156-41.21,216.38-4.41L1399,419.39l-.5,115.52c-38-22.36-78.61-46.23-126-38.24-7.56,1.57-14.55,7.69-17.54,14.77-3.38,16.18,16.34,20.55,25.51,29.05,51.66,24.77,108,67.16,125.19,124.54l1.45-5.57-4-339c-2.73-23.68-4.45-47.89-10.71-70.53q71.37-2.13,142.78-1.25l19.89,25.06c-8.36,23.28-8.65,50-8.41,76.77l1.09,125.61c14.45-21.31,27.85-46.15,39.24-70.47,3-9.11,5.9-18.21,6.32-28.3,49.91-2.45,103.89-1.41,160.42-1.4l15.81,19c-52.51,52.92-81.68,121.79-122.52,182.69,24.09,43.18,46.16,87.38,71.26,130l79.72,120.38Z" transform="translate(-76.97 -14.06)"></path>
  <path class="cls-3" d="M1612.36,813.58c-2.75-25.71-13.53-47.81-24.32-69.93-20-41.7-38.58-83.41-60.12-123.59h-1.51c-.45,62.56-5.88,133.75,7.25,194.19L1407,815.36c6.31-29.82,6.49-63.63,6.73-96.42l-3.46-396.51c-1.21-22.69-3.41-44.37-8.15-65.51,41.87-.87,85.26-1.25,126.13-1.1l-5.64,48.48,2,226.5.5.49c23.87-40.06,47.24-81.12,68.56-122.68,4-8.1,4.38-18.71,8.85-25.29l138.74-.71-26.43,35-96.5,157.24L1724,767.19c10.24,16,22,31.09,34.19,46.12l-145.78.27Zm-296.7-5.49c-64.29,33.36-155.21,21-213.06-17.31q-2-57.74-1-115.52c19.8,14,40.13,29.92,62.89,37.28,29.33,7.83,67.74,16.57,92.76-6.34a31.3,31.3,0,0,0,9.38-24.82c-3.16-14.09-18.89-25.55-30.57-33.53-43.13-28.38-110.93-51-119-111.47-14.1-54.87,9.67-106.53,54.8-138.72,56.66-40.86,144-33.55,201.8-.25,1.27,32.28,1.59,66.08.85,97.86-35.45-16.33-74.51-38.2-117.26-24.21-12.06,6.17-22,18.36-20.39,32.47,1.14,14.62,14.33,24.09,25,32.57,46.71,32.89,115.52,57.51,128.7,120.47,12.68,63-18.08,123.28-74.84,151.52ZM1074.34,557.94l2.35,211.89a459.73,459.73,0,0,0,6,46.85l-123.6,1.08c8.56-59.1,5-124.64,5.93-187.72l-2.73-196.73-4.44-46.89c42.37-.87,86.27-.25,123.6-.07-10.61,54.57-5.53,115.58-7.07,171.59Zm-20.57-217.77c-14.53,11.73-34.67,15.43-53.88,11.06-20.72-4.86-38.56-24.89-43.28-45-4.74-23.18,2.63-45.44,20.17-60.72,14-12.73,34.14-18,54.36-13.09,17.7,4.38,35,19.87,41.7,37.47C1082.14,295,1074.83,323.85,1053.77,340.17Z" transform="translate(-76.97 -14.06)"></path>
  <path class="cls-2" d="M810.49,847.31l-22.44-26.55c9.78-35.4,9.43-75.25,8.58-115.1l-2.11-184.13c-4.61-7.53-13.7-9.47-22.79-9.38-10.08,1.1-19.62,6.22-25.08,15.86-10.86,27.83-3.5,60.57-5.25,91.87l2,173.53c1.68,18.65,3.35,37.3,13.08,52.86l-12.6,1.62-134.21-.34-20.4-25c7.79-32.86,9-68.69,9.18-104.51l-2.31-264.35h-1l-6.33,24.28L537.55,790.15c-1.36,18.17-2.19,39.38,3.51,56.48l-149.32,1.8-21.43-27.56c1-53-12-102.32-21-152.69-8.69,45-15.35,90.94-20.5,136.89.14,15.13-.24,30.28,3.41,43.86l-148.81,1.3-20.91-25.54A294.84,294.84,0,0,0,156.23,743L99,433.27C93.34,415.66,88.65,397,79.43,382c45.9-1.41,98.86-2.38,145.29-.76l18.88,24C239,451.21,249.45,497,259.41,540.33c6.6-53,22.8-104.12,16.77-159.57l130.66-.64,18.37,23.05c-3.64,45.44,8.84,86.7,16.28,129.52l2.46-6.08c3.6-49,19.85-95.53,11.34-146.4L595.54,380c1.16-42.39,1.27-87.3-10.67-125.53,45.91.11,96.34-1.35,144.27-.75l18.36,22.53c-11.31,32.89-5.4,74.72-6.6,110,10.57-3.12,21.64-7.76,32.7-10.88,44.29-11.47,90.33,3.26,120.92,39.3,25,25.52,41.85,55.14,40.66,91.48l3,282.5c2.18,19.15,2.86,39.32,12.1,55.89l-4,2Z" transform="translate(-76.97 -14.06)"></path>
  <path class="cls-3" d="M795.6,818.18c7.33-27.81,8.07-58.6,7.3-88.86L800.56,519c-2.63-13.09-9.81-26.66-23-33.1a47.26,47.26,0,0,0-31.32-3.25c-10.57,3.11-21.58,12.29-26.55,22.42l-3.34,19.71L719.06,777c2.65,14.1,2.28,28.74,8.43,41.29l-2,1-129.66.12c10.29-35.41,8.91-76.77,9.58-117.13l-3.47-398c-2.15-14.61-3.29-29.23-7.44-42.31l129.16-.62c-12.71,47.53-7.18,101.46-7.74,154.44l4-.53c27.52-26.47,60.68-41.4,100.6-35.19,36.87,4.74,73.46,35.69,85.88,70.9l4.75,24.68,3.57,294.09a248,248,0,0,0,7,48.37l-126.14.08ZM567.54,468,515.37,790.86l-.76,29.27-136.22-.33-.8-34.29L347.23,602.14c-1.57-7.06-2.16-15.63-6.23-20.13h-2q-16.75,98.33-31.07,197a277.42,277.42,0,0,0-1.15,41.37c-42.36,2.39-92.33-.2-135.69,2.2-.51-59-14.11-113.4-23.18-168.8L105,426.66c-3.14-13.1-8.3-25.67-13.45-37.73l127.14-.6c-5.85,22.75-1.09,48.43,1.14,71.62l29.69,165.22c1.52,0,3,2,4,0,13-73.77,23.94-148,32.86-223.27,0-4.54-2.65-13.61,1.89-14.65l112,1c-3.83,24.26,2.42,47.41,4.64,70.58,10.07,55.42,18.63,110.84,29.2,165.73.51,1,2,.49,2.52.49l4.83-24.26L464.26,427c-.12-13.11,2.29-26.25-.34-38.83,41.87-.88,85.75-2.27,127.63-.62-12.39,24.85-18.71,52.64-24,80.44ZM2292.35,804.61c-67.8,34.4-160.74,21.59-222.12-16.73q-1.28-57.25-1-114.52c40.6,28.92,91.78,55.2,144.08,35.58,9.06-4.62,17-13.27,20.5-22.39,2.36-16.67-9.34-30.17-22.53-38.64-45.13-25.34-108.93-50.52-120.54-109.44-14.07-51.85.6-105,42.17-139.62,55.07-48.4,147.49-37.11,207.81-7.87l1.54,3,.32,95.85c-31.45-17.9-67.37-29.68-106.66-23.28-10.57,3.11-21.11,9.76-27.06,20.42-3,6.57-3.88,16.17-.8,23.21,25.53,34.08,67,47.84,99.53,73.29,42.61,27.89,60.15,72.13,54,121.62-4.18,41.41-33.12,78.49-69.27,99.49Z" transform="translate(-76.97 -14.06)"></path>
  <path class="cls-2" d="M2067.6,659.76c39.66,35,89.84,62.78,144.16,43.14,7.54-4.1,4.43-12.66,2.37-18.18-15.86-23.06-42.64-29.4-63.46-45.35-51.82-41.43-79.58-100.72-69.55-166.39,6.12-49.5,51.17-92.26,97-106.3,53.34-15.59,115.48-5.54,163.58,16.73L2368.2,418c2.36,38.33-1.37,73.17-.52,113-30-24.46-65.42-35.75-104.78-37.43-12.6.62-24.69,2.74-33.17,12.9-2,4.56-6,9.14-3.38,14.66C2279.18,562,2358.1,590.6,2376.9,662.59c21.75,64.9-8.41,134.27-68.18,166.08-61.76,32.82-154.63,29.09-215.44-3.16-5.62-7.53-19.69-21.31-25.81-27.81l-7.56-122.35,7.7-15.59ZM1798.13,828.09l7.21,13.55-177.1.55c-7.63-9-14.79-19.05-23.94-27.54-6-49.39-34.08-89.51-54.15-133.23-.54,53.49-4.57,112,10,160.87L1421.39,844c-9.64-7-15.29-18-22.92-27a273.71,273.71,0,0,0,8.43-71.21c-7.88,17.73-16.8,39-33.81,54.78-51,54.43-135.16,63.74-205,42.66-23.78-7.86-50.09-16.72-63.94-42.31-1.39,14.64,2.78,30.24,6.44,44.33l-136.21.69-22.45-28c6.24-37.39,6.37-78.76,5.53-118.61l-2.38-274.94c-1.14-15.13-2.79-30.76-7.45-44.34,22.67-2.22,41.37.65,62-1.55-3.56-4-11.65-5.45-16.74-9.94-25.93-23.49-51.41-52-44.66-88.41,3.35-20.71,18.81-41.53,38.4-50.79,19.09-10.26,48.37-8,66.13,4.46,24.91,22,50.38,50,45.66,85.88-2.79,26.77-24.29,49.65-48.94,57.94,11.12,2.43,23.71-.21,34.84,2.22l20.92,27.06-4.77,32.83L1100.29,641l1.19,20.67c36.16,39.54,86.28,60.29,138.65,47.22,6-2.57,13.57-6.67,15-13.24-1.59-9.58-11.26-17.56-19.36-23.05-56.74-26.74-117.2-75.65-127.36-141.14-9.55-53.9,11.72-102,52.81-135.18,57.61-45.92,156-41.21,216.38-4.41L1399,419.39l-.5,115.52c-38-22.36-78.61-46.23-126-38.24-7.56,1.57-14.55,7.69-17.54,14.77-3.38,16.18,16.34,20.55,25.51,29.05,51.66,24.77,108,67.16,125.19,124.54l1.45-5.57-4-339c-2.73-23.68-4.45-47.89-10.71-70.53q71.37-2.13,142.78-1.25l19.89,25.06c-8.36,23.28-8.65,50-8.41,76.77l1.09,125.61c14.45-21.31,27.85-46.15,39.24-70.47,3-9.11,5.9-18.21,6.32-28.3,49.91-2.45,103.89-1.41,160.42-1.4l15.81,19c-52.51,52.92-81.68,121.79-122.52,182.69,24.09,43.18,46.16,87.38,71.26,130l79.72,120.38Z" transform="translate(-76.97 -14.06)"></path>
  <path class="cls-3" d="M1612.36,813.58c-2.75-25.71-13.53-47.81-24.32-69.93-20-41.7-38.58-83.41-60.12-123.59h-1.51c-.45,62.56-5.88,133.75,7.25,194.19L1407,815.36c6.31-29.82,6.49-63.63,6.73-96.42l-3.46-396.51c-1.21-22.69-3.41-44.37-8.15-65.51,41.87-.87,85.26-1.25,126.13-1.1l-5.64,48.48,2,226.5.5.49c23.87-40.06,47.24-81.12,68.56-122.68,4-8.1,4.38-18.71,8.85-25.29l138.74-.71-26.43,35-96.5,157.24L1724,767.19c10.24,16,22,31.09,34.19,46.12l-145.78.27Zm-296.7-5.49c-64.29,33.36-155.21,21-213.06-17.31q-2-57.74-1-115.52c19.8,14,40.13,29.92,62.89,37.28,29.33,7.83,67.74,16.57,92.76-6.34a31.3,31.3,0,0,0,9.38-24.82c-3.16-14.09-18.89-25.55-30.57-33.53-43.13-28.38-110.93-51-119-111.47-14.1-54.87,9.67-106.53,54.8-138.72,56.66-40.86,144-33.55,201.8-.25,1.27,32.28,1.59,66.08.85,97.86-35.45-16.33-74.51-38.2-117.26-24.21-12.06,6.17-22,18.36-20.39,32.47,1.14,14.62,14.33,24.09,25,32.57,46.71,32.89,115.52,57.51,128.7,120.47,12.68,63-18.08,123.28-74.84,151.52ZM1074.34,557.94l2.35,211.89a459.73,459.73,0,0,0,6,46.85l-123.6,1.08c8.56-59.1,5-124.64,5.93-187.72l-2.73-196.73-4.44-46.89c42.37-.87,86.27-.25,123.6-.07-10.61,54.57-5.53,115.58-7.07,171.59Zm-20.57-217.77c-14.53,11.73-34.67,15.43-53.88,11.06-20.72-4.86-38.56-24.89-43.28-45-4.74-23.18,2.63-45.44,20.17-60.72,14-12.73,34.14-18,54.36-13.09,17.7,4.38,35,19.87,41.7,37.47C1082.14,295,1074.83,323.85,1053.77,340.17Z" transform="translate(-76.97 -14.06)"></path>
  <path class="cls-2" d="M810.49,847.31l-22.44-26.55c9.78-35.4,9.43-75.25,8.58-115.1l-2.11-184.13c-4.61-7.53-13.7-9.47-22.79-9.38-10.08,1.1-19.62,6.22-25.08,15.86-10.86,27.83-3.5,60.57-5.25,91.87l2,173.53c1.68,18.65,3.35,37.3,13.08,52.86l-12.6,1.62-134.21-.34-20.4-25c7.79-32.86,9-68.69,9.18-104.51l-2.31-264.35h-1l-6.33,24.28L537.55,790.15c-1.36,18.17-2.19,39.38,3.51,56.48l-149.32,1.8-21.43-27.56c1-53-12-102.32-21-152.69-8.69,45-15.35,90.94-20.5,136.89.14,15.13-.24,30.28,3.41,43.86l-148.81,1.3-20.91-25.54A294.84,294.84,0,0,0,156.23,743L99,433.27C93.34,415.66,88.65,397,79.43,382c45.9-1.41,98.86-2.38,145.29-.76l18.88,24C239,451.21,249.45,497,259.41,540.33c6.6-53,22.8-104.12,16.77-159.57l130.66-.64,18.37,23.05c-3.64,45.44,8.84,86.7,16.28,129.52l2.46-6.08c3.6-49,19.85-95.53,11.34-146.4L595.54,380c1.16-42.39,1.27-87.3-10.67-125.53,45.91.11,96.34-1.35,144.27-.75l18.36,22.53c-11.31,32.89-5.4,74.72-6.6,110,10.57-3.12,21.64-7.76,32.7-10.88,44.29-11.47,90.33,3.26,120.92,39.3,25,25.52,41.85,55.14,40.66,91.48l3,282.5c2.18,19.15,2.86,39.32,12.1,55.89l-4,2Z" transform="translate(-76.97 -14.06)"></path>
  <path class="cls-3" d="M795.6,818.18c7.33-27.81,8.07-58.6,7.3-88.86L800.56,519c-2.63-13.09-9.81-26.66-23-33.1a47.26,47.26,0,0,0-31.32-3.25c-10.57,3.11-21.58,12.29-26.55,22.42l-3.34,19.71L719.06,777c2.65,14.1,2.28,28.74,8.43,41.29l-2,1-129.66.12c10.29-35.41,8.91-76.77,9.58-117.13l-3.47-398c-2.15-14.61-3.29-29.23-7.44-42.31l129.16-.62c-12.71,47.53-7.18,101.46-7.74,154.44l4-.53c27.52-26.47,60.68-41.4,100.6-35.19,36.87,4.74,73.46,35.69,85.88,70.9l4.75,24.68,3.57,294.09a248,248,0,0,0,7,48.37l-126.14.08ZM567.54,468,515.37,790.86l-.76,29.27-136.22-.33-.8-34.29L347.23,602.14c-1.57-7.06-2.16-15.63-6.23-20.13h-2q-16.75,98.33-31.07,197a277.42,277.42,0,0,0-1.15,41.37c-42.36,2.39-92.33-.2-135.69,2.2-.51-59-14.11-113.4-23.18-168.8L105,426.66c-3.14-13.1-8.3-25.67-13.45-37.73l127.14-.6c-5.85,22.75-1.09,48.43,1.14,71.62l29.69,165.22c1.52,0,3,2,4,0,13-73.77,23.94-148,32.86-223.27,0-4.54-2.65-13.61,1.89-14.65l112,1c-3.83,24.26,2.42,47.41,4.64,70.58,10.07,55.42,18.63,110.84,29.2,165.73.51,1,2,.49,2.52.49l4.83-24.26L464.26,427c-.12-13.11,2.29-26.25-.34-38.83,41.87-.88,85.75-2.27,127.63-.62-12.39,24.85-18.71,52.64-24,80.44Z" transform="translate(-76.97 -14.06)"></path>
  <path class="cls-2" d="M2073.84,804l-7.33-144.22.12-101.91c1-56.51-10.54-108.88-52.25-147.88-60.6-64-166.49-57.57-242.43-30.67l-9.17,104.52,18.86,23,25.67-9.31c34.16-12.91,79.11-9.27,104.08,19.27,1.06,6,3.15,14.1.69,20.18-47-14.22-105.53-8.16-143.09,22.43-44.58,37.23-57.73,91.83-51.69,148.28l11,48.39,68.73,72c9.62,5,18.74,9.93,28.36,13.88a107,107,0,0,0,112.76-28.22l22.45,26.55,122.07-1.06c-3.64-11.6-8.78-23.16-8.87-35.27ZM1922.45,684.73C1920,694.84,1912,704.5,1903,710.63c-12.06,5.15-28.69,8.33-40.36.35-4.62-9.54-9.27-20.09-5.32-31.23,2.93-9.6,8.9-20.25,19-24.89,11.56-5.14,27.7-6.3,37.37,2.71C1923.25,664,1925.36,674.61,1922.45,684.73Z" transform="translate(-76.97 -14.06)"></path>
  <path class="cls-3" d="M2292.35,804.61c-67.8,34.4-160.74,21.59-222.12-16.73q-1.28-57.25-1-114.52c40.6,28.92,91.78,55.2,144.08,35.58,9.06-4.62,17-13.27,20.5-22.39,2.36-16.67-9.34-30.17-22.53-38.64-45.13-25.34-108.93-50.52-120.54-109.44-14.07-51.85.6-105,42.17-139.62,55.07-48.4,147.49-37.11,207.81-7.87l1.54,3,.32,95.85c-31.45-17.9-67.37-29.68-106.66-23.28-10.57,3.11-21.11,9.76-27.06,20.42-3,6.57-3.88,16.17-.8,23.21,25.53,34.08,67,47.84,99.53,73.29,42.61,27.89,60.15,72.13,54,121.62-4.18,41.41-33.12,78.49-69.27,99.49Zm-247.14-51.83-2.71-252.23c.74-31.79-6.59-59.47-27.47-81.49-58.56-63.06-159.44-60.16-235.88-34.26l-8.78,94.42c6.05-.56,12.06-4.14,18.11-5.7,34.73-9.89,84.08-20.92,114.57,5.55,18.82,17,19.52,41.21,18.75,66.43l-2,2c-37.44-13.79-89.93-15.36-125.06,5.13-47.23,24.63-68.49,74.76-70.56,124.72.52,57.52,27.75,113.79,81.95,138.53,34.93,15.35,81.28,8.88,109.32-16.59,8-6.63,12.48-15.75,20-20.85,3.13,10.55,4.23,21.64,6.35,32.72,38.84.68,82.72.29,118-1-8.69-17.58-11.4-37.75-14.6-57.4Zm-136.53-35.63c-12.06,7.18-31.21,9.36-44.88,3.41-17.7-6.39-29.48-25-31.16-43.62-1.16-19.66,8.77-36.91,25.34-47.13,14.54-8.72,36.75-7.89,51.44.55,13.2,9,22.42,23,23.55,38.65.69,19.67-7.23,38.4-24.29,48.14Z" transform="translate(-76.97 -14.06)"></path>
  <path class="cls-4" d="M2310.22,247.93c-26.18.23-49.31,18.53-49,49.65s23.74,49,49.9,48.79,49.2-18.53,48.91-49.65-23.72-49-49.76-48.79Zm.76,87.12v-.13c-19.53.3-35.43-14.81-35.63-37.46s15.42-37.91,35-38.08c19-.15,35.28,14.81,35.48,37.46s-15.8,38-34.81,38.21Z" transform="translate(-76.97 -14.06)"></path>
  <path class="cls-4" d="M2332.57,286.42c-.12-12.11-8.22-15.95-21.9-15.82l-19.79.17.45,53,11.36-.09-.22-22.27,5.35,0,12.41,22.17,13.41-.12-13.75-23.06C2327,299.74,2332.65,296.17,2332.57,286.42Zm-20.14,5.91-10,.08-.12-12.76,7.93-.07c4.31,0,10.17.3,10.22,5.77C2320.49,291.21,2317.5,292.28,2312.43,292.33Z" transform="translate(-76.97 -14.06)"></path>
</svg>
